# MagicaVoxel @ ephtracy

# material
mtllib car small blue.mtl
usemtl palette

# normals
vn -1 0 0
vn 1 0 0
vn 0 0 1
vn 0 0 -1
vn 0 -1 0
vn 0 1 0

# texcoords
vt 0.541016 0.5
vt 0.669922 0.5
vt 0.751953 0.5
vt 0.783203 0.5
vt 0.962891 0.5
vt 0.994141 0.5

# verts and faces
v -3.5 3 2
v -3.5 3 1
v -3.5 4 2
v -3.5 4 1
f -2/4/1 -3/4/1 -4/4/1
f -1/4/1 -3/4/1 -2/4/1
v -2.5 0 4
v -2.5 0 1
v -2.5 0 -1
v -2.5 0 -4
v -2.5 1 5
v -2.5 1 4
v -2.5 1 3
v -2.5 1 2
v -2.5 1 1
v -2.5 1 -1
v -2.5 1 -2
v -2.5 1 -3
v -2.5 1 -4
v -2.5 1 -5
v -2.5 2 5
v -2.5 2 4
v -2.5 2 3
v -2.5 2 2
v -2.5 2 1
v -2.5 2 -1
v -2.5 2 -2
v -2.5 2 -3
v -2.5 2 -4
v -2.5 2 -5
v -2.5 3 4
v -2.5 3 2
v -2.5 3 1
v -2.5 3 -1
v -2.5 3 -4
v -2.5 4 5
v -2.5 4 2
v -2.5 4 1
v -2.5 4 -2
v -2.5 4 -3
v -2.5 4 -5
v -2.5 5 1
v -2.5 5 -2
v -2.5 6 2
v -2.5 6 -3
f -34/6/1 -38/6/1 -39/6/1
f -33/6/1 -38/6/1 -34/6/1
f -32/6/1 -38/6/1 -33/6/1
f -31/6/1 -38/6/1 -32/6/1
f -30/6/1 -36/6/1 -37/6/1
f -29/6/1 -36/6/1 -30/6/1
f -28/6/1 -36/6/1 -29/6/1
f -27/6/1 -36/6/1 -28/6/1
f -25/2/1 -34/2/1 -35/2/1
f -24/6/1 -33/6/1 -34/6/1
f -24/2/1 -34/2/1 -25/2/1
f -23/5/1 -32/5/1 -33/5/1
f -23/6/1 -33/6/1 -24/6/1
f -22/6/1 -31/6/1 -32/6/1
f -22/5/1 -32/5/1 -23/5/1
f -21/2/1 -30/2/1 -31/2/1
f -21/6/1 -31/6/1 -22/6/1
f -20/6/1 -29/6/1 -30/6/1
f -20/2/1 -30/2/1 -21/2/1
f -19/5/1 -28/5/1 -29/5/1
f -19/6/1 -29/6/1 -20/6/1
f -18/6/1 -27/6/1 -28/6/1
f -18/5/1 -28/5/1 -19/5/1
f -17/2/1 -26/2/1 -27/2/1
f -17/6/1 -27/6/1 -18/6/1
f -16/2/1 -26/2/1 -17/2/1
f -15/6/1 -23/6/1 -24/6/1
f -15/3/1 -24/3/1 -25/3/1
f -15/6/1 -22/6/1 -23/6/1
f -15/6/1 -21/6/1 -22/6/1
f -14/6/1 -21/6/1 -15/6/1
f -13/3/1 -20/3/1 -21/3/1
f -13/6/1 -21/6/1 -14/6/1
f -12/6/1 -18/6/1 -19/6/1
f -12/3/1 -20/3/1 -13/3/1
f -12/6/1 -17/6/1 -18/6/1
f -12/6/1 -19/6/1 -20/6/1
f -11/3/1 -16/3/1 -17/3/1
f -11/6/1 -17/6/1 -12/6/1
f -10/3/1 -15/3/1 -25/3/1
f -10/3/1 -14/3/1 -15/3/1
f -9/3/1 -14/3/1 -10/3/1
f -8/3/1 -12/3/1 -13/3/1
f -8/3/1 -11/3/1 -12/3/1
f -7/3/1 -11/3/1 -8/3/1
f -6/3/1 -11/3/1 -7/3/1
f -5/3/1 -16/3/1 -11/3/1
f -5/3/1 -11/3/1 -6/3/1
f -4/5/1 -8/5/1 -9/5/1
f -4/6/1 -7/6/1 -8/6/1
f -3/5/1 -6/5/1 -7/5/1
f -3/6/1 -7/6/1 -4/6/1
f -2/5/1 -4/5/1 -9/5/1
f -2/5/1 -3/5/1 -4/5/1
f -1/5/1 -6/5/1 -3/5/1
f -1/5/1 -3/5/1 -2/5/1
v -1.5 4 -4
v -1.5 4 -5
v -1.5 5 -4
v -1.5 5 -5
f -2/4/1 -3/4/1 -4/4/1
f -1/4/1 -3/4/1 -2/4/1
v 1.5 0 4
v 1.5 0 1
v 1.5 0 -1
v 1.5 0 -4
v 1.5 1 4
v 1.5 1 1
v 1.5 1 -1
v 1.5 1 -4
f -4/6/1 -7/6/1 -8/6/1
f -3/6/1 -7/6/1 -4/6/1
f -2/6/1 -5/6/1 -6/6/1
f -1/6/1 -5/6/1 -2/6/1
v -1.5 0 4
v -1.5 0 1
v -1.5 0 -1
v -1.5 0 -4
v -1.5 1 4
v -1.5 1 1
v -1.5 1 -1
v -1.5 1 -4
f -8/6/2 -7/6/2 -4/6/2
f -4/6/2 -7/6/2 -3/6/2
f -6/6/2 -5/6/2 -2/6/2
f -2/6/2 -5/6/2 -1/6/2
v 1.5 4 -4
v 1.5 4 -5
v 1.5 5 -4
v 1.5 5 -5
f -4/4/2 -3/4/2 -2/4/2
f -2/4/2 -3/4/2 -1/4/2
v 2.5 0 4
v 2.5 0 1
v 2.5 0 -1
v 2.5 0 -4
v 2.5 1 5
v 2.5 1 4
v 2.5 1 3
v 2.5 1 2
v 2.5 1 1
v 2.5 1 -1
v 2.5 1 -2
v 2.5 1 -3
v 2.5 1 -4
v 2.5 1 -5
v 2.5 2 5
v 2.5 2 4
v 2.5 2 3
v 2.5 2 2
v 2.5 2 1
v 2.5 2 -1
v 2.5 2 -2
v 2.5 2 -3
v 2.5 2 -4
v 2.5 2 -5
v 2.5 3 4
v 2.5 3 2
v 2.5 3 1
v 2.5 3 -1
v 2.5 3 -4
v 2.5 4 5
v 2.5 4 2
v 2.5 4 1
v 2.5 4 -2
v 2.5 4 -3
v 2.5 4 -5
v 2.5 5 1
v 2.5 5 -2
v 2.5 6 2
v 2.5 6 -3
f -39/6/2 -38/6/2 -34/6/2
f -34/6/2 -38/6/2 -33/6/2
f -33/6/2 -38/6/2 -32/6/2
f -32/6/2 -38/6/2 -31/6/2
f -37/6/2 -36/6/2 -30/6/2
f -30/6/2 -36/6/2 -29/6/2
f -29/6/2 -36/6/2 -28/6/2
f -28/6/2 -36/6/2 -27/6/2
f -35/2/2 -34/2/2 -25/2/2
f -34/6/2 -33/6/2 -24/6/2
f -25/2/2 -34/2/2 -24/2/2
f -33/5/2 -32/5/2 -23/5/2
f -24/6/2 -33/6/2 -23/6/2
f -32/6/2 -31/6/2 -22/6/2
f -23/5/2 -32/5/2 -22/5/2
f -31/2/2 -30/2/2 -21/2/2
f -22/6/2 -31/6/2 -21/6/2
f -30/6/2 -29/6/2 -20/6/2
f -21/2/2 -30/2/2 -20/2/2
f -29/5/2 -28/5/2 -19/5/2
f -20/6/2 -29/6/2 -19/6/2
f -28/6/2 -27/6/2 -18/6/2
f -19/5/2 -28/5/2 -18/5/2
f -27/2/2 -26/2/2 -17/2/2
f -18/6/2 -27/6/2 -17/6/2
f -17/2/2 -26/2/2 -16/2/2
f -24/6/2 -23/6/2 -15/6/2
f -25/3/2 -24/3/2 -15/3/2
f -23/6/2 -22/6/2 -15/6/2
f -22/6/2 -21/6/2 -15/6/2
f -15/6/2 -21/6/2 -14/6/2
f -21/3/2 -20/3/2 -13/3/2
f -14/6/2 -21/6/2 -13/6/2
f -19/6/2 -18/6/2 -12/6/2
f -13/3/2 -20/3/2 -12/3/2
f -18/6/2 -17/6/2 -12/6/2
f -20/6/2 -19/6/2 -12/6/2
f -17/3/2 -16/3/2 -11/3/2
f -12/6/2 -17/6/2 -11/6/2
f -25/3/2 -15/3/2 -10/3/2
f -15/3/2 -14/3/2 -10/3/2
f -10/3/2 -14/3/2 -9/3/2
f -13/3/2 -12/3/2 -8/3/2
f -12/3/2 -11/3/2 -8/3/2
f -8/3/2 -11/3/2 -7/3/2
f -7/3/2 -11/3/2 -6/3/2
f -11/3/2 -16/3/2 -5/3/2
f -6/3/2 -11/3/2 -5/3/2
f -9/5/2 -8/5/2 -4/5/2
f -8/6/2 -7/6/2 -4/6/2
f -7/5/2 -6/5/2 -3/5/2
f -4/6/2 -7/6/2 -3/6/2
f -9/5/2 -4/5/2 -2/5/2
f -4/5/2 -3/5/2 -2/5/2
f -3/5/2 -6/5/2 -1/5/2
f -2/5/2 -3/5/2 -1/5/2
v 3.5 3 2
v 3.5 3 1
v 3.5 4 2
v 3.5 4 1
f -4/4/2 -3/4/2 -2/4/2
f -2/4/2 -3/4/2 -1/4/2
v -2.5 1 5
v -2.5 2 5
v -2.5 4 5
v -0.5 2 5
v -0.5 4 5
v 0.5 2 5
v 0.5 4 5
v 2.5 1 5
v 2.5 2 5
v 2.5 4 5
f -7/2/3 -9/2/3 -10/2/3
f -7/3/3 -8/3/3 -9/3/3
f -6/3/3 -8/3/3 -7/3/3
f -5/2/3 -7/2/3 -10/2/3
f -5/1/3 -6/1/3 -7/1/3
f -4/1/3 -6/1/3 -5/1/3
f -3/2/3 -5/2/3 -10/2/3
f -2/3/3 -4/3/3 -5/3/3
f -2/2/3 -5/2/3 -3/2/3
f -1/3/3 -4/3/3 -2/3/3
v -2.5 0 4
v -2.5 1 4
v -1.5 0 4
v -1.5 1 4
v 1.5 0 4
v 1.5 1 4
v 2.5 0 4
v 2.5 1 4
f -6/6/3 -7/6/3 -8/6/3
f -5/6/3 -7/6/3 -6/6/3
f -2/6/3 -3/6/3 -4/6/3
f -1/6/3 -3/6/3 -2/6/3
v -3.5 3 2
v -3.5 4 2
v -2.5 3 2
v -2.5 4 2
v -2.5 6 2
v -1.5 4 2
v -1.5 5 2
v -0.5 4 2
v 0.5 4 2
v 1.5 4 2
v 1.5 5 2
v 2.5 3 2
v 2.5 4 2
v 2.5 6 2
v 3.5 3 2
v 3.5 4 2
f -14/4/3 -15/4/3 -16/4/3
f -13/4/3 -15/4/3 -14/4/3
f -11/5/3 -12/5/3 -13/5/3
f -10/5/3 -12/5/3 -11/5/3
f -9/6/3 -10/6/3 -11/6/3
f -8/6/3 -10/6/3 -9/6/3
f -7/6/3 -10/6/3 -8/6/3
f -6/5/3 -12/5/3 -10/5/3
f -6/6/3 -10/6/3 -7/6/3
f -4/5/3 -6/5/3 -7/5/3
f -3/5/3 -12/5/3 -6/5/3
f -3/5/3 -6/5/3 -4/5/3
f -2/4/3 -4/4/3 -5/4/3
f -1/4/3 -4/4/3 -2/4/3
v -2.5 0 -1
v -2.5 1 -1
v -1.5 0 -1
v -1.5 1 -1
v 1.5 0 -1
v 1.5 1 -1
v 2.5 0 -1
v 2.5 1 -1
f -6/6/3 -7/6/3 -8/6/3
f -5/6/3 -7/6/3 -6/6/3
f -2/6/3 -3/6/3 -4/6/3
f -1/6/3 -3/6/3 -2/6/3
v -1.5 4 -4
v -1.5 5 -4
v -0.5 4 -4
v 0.5 4 -4
v 1.5 4 -4
v 1.5 5 -4
f -4/4/3 -5/4/3 -6/4/3
f -3/4/3 -5/4/3 -4/4/3
f -2/4/3 -5/4/3 -3/4/3
f -1/4/3 -5/4/3 -2/4/3
v -3.5 3 1
v -3.5 4 1
v -2.5 0 1
v -2.5 1 1
v -2.5 3 1
v -2.5 4 1
v -1.5 0 1
v -1.5 1 1
v 1.5 0 1
v 1.5 1 1
v 2.5 0 1
v 2.5 1 1
v 2.5 3 1
v 2.5 4 1
v 3.5 3 1
v 3.5 4 1
f -16/4/4 -15/4/4 -12/4/4
f -12/4/4 -15/4/4 -11/4/4
f -14/6/4 -13/6/4 -10/6/4
f -10/6/4 -13/6/4 -9/6/4
f -8/6/4 -7/6/4 -6/6/4
f -6/6/4 -7/6/4 -5/6/4
f -4/4/4 -3/4/4 -2/4/4
f -2/4/4 -3/4/4 -1/4/4
v -2.5 4 -3
v -2.5 6 -3
v -1.5 4 -3
v -1.5 5 -3
v -0.5 4 -3
v 0.5 4 -3
v 1.5 4 -3
v 1.5 5 -3
v 2.5 4 -3
v 2.5 6 -3
f -10/5/4 -9/5/4 -8/5/4
f -8/5/4 -9/5/4 -7/5/4
f -8/6/4 -7/6/4 -6/6/4
f -6/6/4 -7/6/4 -5/6/4
f -5/6/4 -7/6/4 -4/6/4
f -7/5/4 -9/5/4 -3/5/4
f -4/6/4 -7/6/4 -3/6/4
f -4/5/4 -3/5/4 -2/5/4
f -3/5/4 -9/5/4 -1/5/4
f -2/5/4 -3/5/4 -1/5/4
v -2.5 0 -4
v -2.5 1 -4
v -1.5 0 -4
v -1.5 1 -4
v 1.5 0 -4
v 1.5 1 -4
v 2.5 0 -4
v 2.5 1 -4
f -8/6/4 -7/6/4 -6/6/4
f -6/6/4 -7/6/4 -5/6/4
f -4/6/4 -3/6/4 -2/6/4
f -2/6/4 -3/6/4 -1/6/4
v -2.5 1 -5
v -2.5 2 -5
v -2.5 4 -5
v -1.5 4 -5
v -1.5 5 -5
v 1.5 4 -5
v 1.5 5 -5
v 2.5 1 -5
v 2.5 2 -5
v 2.5 4 -5
f -9/3/4 -8/3/4 -7/3/4
f -9/3/4 -7/3/4 -5/3/4
f -7/4/4 -6/4/4 -5/4/4
f -5/4/4 -6/4/4 -4/4/4
f -10/2/4 -9/2/4 -3/2/4
f -9/3/4 -5/3/4 -2/3/4
f -3/2/4 -9/2/4 -2/2/4
f -2/3/4 -5/3/4 -1/3/4
v -2.5 0 4
v -1.5 0 4
v 1.5 0 4
v 2.5 0 4
v -2.5 0 1
v -1.5 0 1
v 1.5 0 1
v 2.5 0 1
v -2.5 0 -1
v -1.5 0 -1
v 1.5 0 -1
v 2.5 0 -1
v -2.5 0 -4
v -1.5 0 -4
v 1.5 0 -4
v 2.5 0 -4
f -12/6/5 -15/6/5 -16/6/5
f -11/6/5 -15/6/5 -12/6/5
f -10/6/5 -13/6/5 -14/6/5
f -9/6/5 -13/6/5 -10/6/5
f -4/6/5 -7/6/5 -8/6/5
f -3/6/5 -7/6/5 -4/6/5
f -2/6/5 -5/6/5 -6/6/5
f -1/6/5 -5/6/5 -2/6/5
v -2.5 1 5
v 2.5 1 5
v -2.5 1 4
v -1.5 1 4
v 1.5 1 4
v 2.5 1 4
v -2.5 1 1
v -1.5 1 1
v 1.5 1 1
v 2.5 1 1
v -2.5 1 -1
v -1.5 1 -1
v 1.5 1 -1
v 2.5 1 -1
v -2.5 1 -4
v -1.5 1 -4
v 1.5 1 -4
v 2.5 1 -4
v -2.5 1 -5
v 2.5 1 -5
f -18/2/5 -19/2/5 -20/2/5
f -17/2/5 -19/2/5 -18/2/5
f -16/2/5 -19/2/5 -17/2/5
f -15/2/5 -19/2/5 -16/2/5
f -13/2/5 -16/2/5 -17/2/5
f -12/2/5 -16/2/5 -13/2/5
f -10/2/5 -13/2/5 -14/2/5
f -10/2/5 -11/2/5 -12/2/5
f -10/2/5 -12/2/5 -13/2/5
f -9/2/5 -11/2/5 -10/2/5
f -8/2/5 -11/2/5 -9/2/5
f -7/2/5 -11/2/5 -8/2/5
f -5/2/5 -8/2/5 -9/2/5
f -4/2/5 -8/2/5 -5/2/5
f -2/2/5 -5/2/5 -6/2/5
f -2/2/5 -3/2/5 -4/2/5
f -2/2/5 -4/2/5 -5/2/5
f -1/2/5 -3/2/5 -2/2/5
v -3.5 3 2
v -2.5 3 2
v 2.5 3 2
v 3.5 3 2
v -3.5 3 1
v -2.5 3 1
v 2.5 3 1
v 3.5 3 1
f -4/4/5 -7/4/5 -8/4/5
f -3/4/5 -7/4/5 -4/4/5
f -2/4/5 -5/4/5 -6/4/5
f -1/4/5 -5/4/5 -2/4/5
v -2.5 4 5
v -0.5 4 5
v 0.5 4 5
v 2.5 4 5
v -3.5 4 2
v -2.5 4 2
v -1.5 4 2
v -0.5 4 2
v 0.5 4 2
v 1.5 4 2
v 2.5 4 2
v 3.5 4 2
v -3.5 4 1
v -2.5 4 1
v 2.5 4 1
v 3.5 4 1
v -2.5 4 -3
v -1.5 4 -3
v -0.5 4 -3
v 0.5 4 -3
v 1.5 4 -3
v 2.5 4 -3
v -1.5 4 -4
v -0.5 4 -4
v 0.5 4 -4
v 1.5 4 -4
v -2.5 4 -5
v -1.5 4 -5
v 1.5 4 -5
v 2.5 4 -5
f -30/3/6 -29/3/6 -25/3/6
f -25/3/6 -29/3/6 -24/3/6
f -29/1/6 -28/1/6 -23/1/6
f -24/3/6 -29/3/6 -23/3/6
f -28/3/6 -27/3/6 -22/3/6
f -23/1/6 -28/1/6 -22/1/6
f -22/3/6 -27/3/6 -21/3/6
f -21/3/6 -27/3/6 -20/3/6
f -26/4/6 -25/4/6 -18/4/6
f -18/4/6 -25/4/6 -17/4/6
f -20/4/6 -19/4/6 -16/4/6
f -16/4/6 -19/4/6 -15/4/6
f -14/3/6 -13/3/6 -8/3/6
f -13/3/6 -12/3/6 -8/3/6
f -12/1/6 -11/1/6 -7/1/6
f -8/3/6 -12/3/6 -7/3/6
f -10/3/6 -9/3/6 -6/3/6
f -7/1/6 -11/1/6 -6/1/6
f -11/3/6 -10/3/6 -6/3/6
f -6/3/6 -9/3/6 -5/3/6
f -14/3/6 -8/3/6 -4/3/6
f -4/3/6 -8/3/6 -3/3/6
f -5/3/6 -9/3/6 -2/3/6
f -2/3/6 -9/3/6 -1/3/6
v -1.5 5 -4
v 1.5 5 -4
v -1.5 5 -5
v 1.5 5 -5
f -4/4/6 -3/4/6 -2/4/6
f -2/4/6 -3/4/6 -1/4/6
v -2.5 6 2
v 2.5 6 2
v -2.5 6 -3
v 2.5 6 -3
f -4/5/6 -3/5/6 -2/5/6
f -2/5/6 -3/5/6 -1/5/6
