# MagicaVoxel @ ephtracy

# material
mtllib chicken-brown.mtl
usemtl palette

# normals
vn -1 0 0
vn 1 0 0
vn 0 0 1
vn 0 0 -1
vn 0 -1 0
vn 0 1 0

# texcoords
vt 0.0175781 0.5
vt 0.0214844 0.5
vt 0.0917969 0.5
vt 0.138672 0.5
vt 0.232422 0.5
vt 0.306641 0.5
vt 0.373047 0.5
vt 0.560547 0.5
vt 0.685547 0.5
vt 0.701172 0.5
vt 0.869141 0.5
vt 0.939453 0.5
vt 0.958984 0.5
vt 0.994141 0.5

# verts and faces
v -19.5 11 9.5
v -19.5 11 -13.5
v -19.5 19 9.5
v -19.5 19 -13.5
f -2/10/1 -3/10/1 -4/10/1
f -1/10/1 -3/10/1 -2/10/1
v -14.5 37 9.5
v -14.5 37 3.5
v -14.5 39 9.5
v -14.5 39 3.5
f -2/11/1 -3/11/1 -4/11/1
f -1/11/1 -3/11/1 -2/11/1
v -12.5 7 14.5
v -12.5 7 -18.5
v -12.5 11 9.5
v -12.5 11 -13.5
v -12.5 19 9.5
v -12.5 19 -13.5
v -12.5 23 -11.5
v -12.5 23 -18.5
v -12.5 32 8.5
v -12.5 32 3.5
v -12.5 37 9.5
v -12.5 37 8.5
v -12.5 37 4.5
v -12.5 37 3.5
v -12.5 39 9.5
v -12.5 39 3.5
v -12.5 41 14.5
v -12.5 41 -11.5
f -16/5/1 -17/5/1 -18/5/1
f -15/5/1 -17/5/1 -16/5/1
f -14/5/1 -16/5/1 -18/5/1
f -13/5/1 -17/5/1 -15/5/1
f -12/5/1 -13/5/1 -14/5/1
f -11/5/1 -17/5/1 -13/5/1
f -11/5/1 -13/5/1 -12/5/1
f -10/5/1 -12/5/1 -14/5/1
f -9/5/1 -12/5/1 -10/5/1
f -8/5/1 -14/5/1 -18/5/1
f -8/5/1 -10/5/1 -14/5/1
f -7/9/1 -9/9/1 -10/9/1
f -7/5/1 -10/5/1 -8/5/1
f -6/9/1 -9/9/1 -7/9/1
f -5/5/1 -12/5/1 -9/5/1
f -5/9/1 -9/9/1 -6/9/1
f -4/5/1 -8/5/1 -18/5/1
f -3/5/1 -12/5/1 -5/5/1
f -2/5/1 -4/5/1 -18/5/1
f -2/5/1 -3/5/1 -4/5/1
f -1/5/1 -12/5/1 -3/5/1
f -1/5/1 -3/5/1 -2/5/1
v -9.5 0 15.5
v -9.5 0 -2.5
v -9.5 1 15.5
v -9.5 1 -2.5
f -2/3/1 -3/3/1 -4/3/1
f -1/3/1 -3/3/1 -2/3/1
v -8.5 1 3.5
v -8.5 1 0.5
v -8.5 7 3.5
v -8.5 7 0.5
f -2/3/1 -3/3/1 -4/3/1
f -1/3/1 -3/3/1 -2/3/1
v -7.5 7 -18.5
v -7.5 7 -22.5
v -7.5 23 -18.5
v -7.5 23 -22.5
v -7.5 41 3.5
v -7.5 41 -1.5
v -7.5 44 3.5
v -7.5 44 2.5
v -7.5 44 -0.5
v -7.5 44 -1.5
v -7.5 45 2.5
v -7.5 45 -0.5
f -10/5/1 -11/5/1 -12/5/1
f -9/5/1 -11/5/1 -10/5/1
f -6/4/1 -7/4/1 -8/4/1
f -5/4/1 -7/4/1 -6/4/1
f -4/4/1 -7/4/1 -5/4/1
f -3/4/1 -7/4/1 -4/4/1
f -2/4/1 -4/4/1 -5/4/1
f -1/4/1 -4/4/1 -2/4/1
v -6.5 41 4.5
v -6.5 41 3.5
v -6.5 41 -1.5
v -6.5 41 -2.5
v -6.5 44 4.5
v -6.5 44 3.5
v -6.5 44 2.5
v -6.5 44 -0.5
v -6.5 44 -1.5
v -6.5 44 -2.5
v -6.5 45 3.5
v -6.5 45 2.5
v -6.5 45 -0.5
v -6.5 45 -1.5
f -10/4/1 -13/4/1 -14/4/1
f -9/4/1 -13/4/1 -10/4/1
f -6/4/1 -11/4/1 -12/4/1
f -5/4/1 -11/4/1 -6/4/1
f -4/4/1 -8/4/1 -9/4/1
f -3/4/1 -8/4/1 -4/4/1
f -2/4/1 -6/4/1 -7/4/1
f -1/4/1 -6/4/1 -2/4/1
v -5.5 0 15.5
v -5.5 0 9.5
v -5.5 0 -2.5
v -5.5 0 -3.5
v -5.5 1 15.5
v -5.5 1 9.5
v -5.5 1 -2.5
v -5.5 1 -3.5
v -5.5 44 4.5
v -5.5 44 3.5
v -5.5 44 -1.5
v -5.5 44 -2.5
v -5.5 45 4.5
v -5.5 45 3.5
v -5.5 45 -1.5
v -5.5 45 -2.5
f -12/3/1 -15/3/1 -16/3/1
f -11/3/1 -15/3/1 -12/3/1
f -10/3/1 -13/3/1 -14/3/1
f -9/3/1 -13/3/1 -10/3/1
f -4/4/1 -7/4/1 -8/4/1
f -3/4/1 -7/4/1 -4/4/1
f -2/4/1 -5/4/1 -6/4/1
f -1/4/1 -5/4/1 -2/4/1
v -3.5 24 18.5
v -3.5 24 14.5
v -3.5 28 22.5
v -3.5 28 18.5
v -3.5 28 14.5
v -3.5 34 22.5
v -3.5 34 14.5
v -3.5 41 7.5
v -3.5 41 4.5
v -3.5 41 -2.5
v -3.5 41 -4.5
v -3.5 45 7.5
v -3.5 45 4.5
v -3.5 45 -2.5
v -3.5 45 -4.5
f -12/4/1 -14/4/1 -15/4/1
f -11/4/1 -14/4/1 -12/4/1
f -10/8/1 -12/8/1 -13/8/1
f -10/8/1 -11/8/1 -12/8/1
f -9/8/1 -11/8/1 -10/8/1
f -4/4/1 -7/4/1 -8/4/1
f -3/4/1 -7/4/1 -4/4/1
f -2/4/1 -5/4/1 -6/4/1
f -1/4/1 -5/4/1 -2/4/1
v -2.5 42 8.5
v -2.5 42 7.5
v -2.5 42 -4.5
v -2.5 42 -5.5
v -2.5 45 8.5
v -2.5 45 7.5
v -2.5 45 -4.5
v -2.5 45 -5.5
f -4/4/1 -7/4/1 -8/4/1
f -3/4/1 -7/4/1 -4/4/1
f -2/4/1 -5/4/1 -6/4/1
f -1/4/1 -5/4/1 -2/4/1
v -1.5 41 8.5
v -1.5 41 7.5
v -1.5 41 -4.5
v -1.5 41 -5.5
v -1.5 42 8.5
v -1.5 42 7.5
v -1.5 42 -4.5
v -1.5 42 -5.5
f -4/4/1 -7/4/1 -8/4/1
f -3/4/1 -7/4/1 -4/4/1
f -2/4/1 -5/4/1 -6/4/1
f -1/4/1 -5/4/1 -2/4/1
v 3.5 0 15.5
v 3.5 0 -2.5
v 3.5 1 15.5
v 3.5 1 -2.5
f -2/3/1 -3/3/1 -4/3/1
f -1/3/1 -3/3/1 -2/3/1
v 4.5 0 -2.5
v 4.5 0 -3.5
v 4.5 1 -2.5
v 4.5 1 -3.5
f -2/3/1 -3/3/1 -4/3/1
f -1/3/1 -3/3/1 -2/3/1
v 5.5 1 3.5
v 5.5 1 0.5
v 5.5 7 3.5
v 5.5 7 0.5
f -2/3/1 -3/3/1 -4/3/1
f -1/3/1 -3/3/1 -2/3/1
v 7.5 0 15.5
v 7.5 0 9.5
v 7.5 1 15.5
v 7.5 1 9.5
f -2/3/1 -3/3/1 -4/3/1
f -1/3/1 -3/3/1 -2/3/1
v -7.5 0 15.5
v -7.5 0 9.5
v -7.5 1 15.5
v -7.5 1 9.5
f -4/3/2 -3/3/2 -2/3/2
f -2/3/2 -3/3/2 -1/3/2
v -5.5 1 3.5
v -5.5 1 0.5
v -5.5 7 3.5
v -5.5 7 0.5
f -4/3/2 -3/3/2 -2/3/2
f -2/3/2 -3/3/2 -1/3/2
v -4.5 0 -2.5
v -4.5 0 -3.5
v -4.5 1 -2.5
v -4.5 1 -3.5
f -4/3/2 -3/3/2 -2/3/2
f -2/3/2 -3/3/2 -1/3/2
v -3.5 0 15.5
v -3.5 0 -2.5
v -3.5 1 15.5
v -3.5 1 -2.5
f -4/3/2 -3/3/2 -2/3/2
f -2/3/2 -3/3/2 -1/3/2
v 1.5 41 8.5
v 1.5 41 7.5
v 1.5 41 -4.5
v 1.5 41 -5.5
v 1.5 42 8.5
v 1.5 42 7.5
v 1.5 42 -4.5
v 1.5 42 -5.5
f -8/4/2 -7/4/2 -4/4/2
f -4/4/2 -7/4/2 -3/4/2
f -6/4/2 -5/4/2 -2/4/2
f -2/4/2 -5/4/2 -1/4/2
v 2.5 42 8.5
v 2.5 42 7.5
v 2.5 42 -4.5
v 2.5 42 -5.5
v 2.5 45 8.5
v 2.5 45 7.5
v 2.5 45 -4.5
v 2.5 45 -5.5
f -8/4/2 -7/4/2 -4/4/2
f -4/4/2 -7/4/2 -3/4/2
f -6/4/2 -5/4/2 -2/4/2
f -2/4/2 -5/4/2 -1/4/2
v 3.5 24 18.5
v 3.5 24 14.5
v 3.5 28 22.5
v 3.5 28 18.5
v 3.5 28 14.5
v 3.5 34 22.5
v 3.5 34 14.5
v 3.5 41 7.5
v 3.5 41 4.5
v 3.5 41 -2.5
v 3.5 41 -4.5
v 3.5 45 7.5
v 3.5 45 4.5
v 3.5 45 -2.5
v 3.5 45 -4.5
f -15/4/2 -14/4/2 -12/4/2
f -12/4/2 -14/4/2 -11/4/2
f -13/8/2 -12/8/2 -10/8/2
f -12/8/2 -11/8/2 -10/8/2
f -10/8/2 -11/8/2 -9/8/2
f -8/4/2 -7/4/2 -4/4/2
f -4/4/2 -7/4/2 -3/4/2
f -6/4/2 -5/4/2 -2/4/2
f -2/4/2 -5/4/2 -1/4/2
v 5.5 0 15.5
v 5.5 0 9.5
v 5.5 0 -2.5
v 5.5 0 -3.5
v 5.5 1 15.5
v 5.5 1 9.5
v 5.5 1 -2.5
v 5.5 1 -3.5
v 5.5 44 4.5
v 5.5 44 3.5
v 5.5 44 -1.5
v 5.5 44 -2.5
v 5.5 45 4.5
v 5.5 45 3.5
v 5.5 45 -1.5
v 5.5 45 -2.5
f -16/3/2 -15/3/2 -12/3/2
f -12/3/2 -15/3/2 -11/3/2
f -14/3/2 -13/3/2 -10/3/2
f -10/3/2 -13/3/2 -9/3/2
f -8/4/2 -7/4/2 -4/4/2
f -4/4/2 -7/4/2 -3/4/2
f -6/4/2 -5/4/2 -2/4/2
f -2/4/2 -5/4/2 -1/4/2
v 6.5 41 4.5
v 6.5 41 3.5
v 6.5 41 -1.5
v 6.5 41 -2.5
v 6.5 44 4.5
v 6.5 44 3.5
v 6.5 44 2.5
v 6.5 44 -0.5
v 6.5 44 -1.5
v 6.5 44 -2.5
v 6.5 45 3.5
v 6.5 45 2.5
v 6.5 45 -0.5
v 6.5 45 -1.5
f -14/4/2 -13/4/2 -10/4/2
f -10/4/2 -13/4/2 -9/4/2
f -12/4/2 -11/4/2 -6/4/2
f -6/4/2 -11/4/2 -5/4/2
f -9/4/2 -8/4/2 -4/4/2
f -4/4/2 -8/4/2 -3/4/2
f -7/4/2 -6/4/2 -2/4/2
f -2/4/2 -6/4/2 -1/4/2
v 7.5 7 -18.5
v 7.5 7 -22.5
v 7.5 23 -18.5
v 7.5 23 -22.5
v 7.5 41 3.5
v 7.5 41 -1.5
v 7.5 44 3.5
v 7.5 44 2.5
v 7.5 44 -0.5
v 7.5 44 -1.5
v 7.5 45 2.5
v 7.5 45 -0.5
f -12/5/2 -11/5/2 -10/5/2
f -10/5/2 -11/5/2 -9/5/2
f -8/4/2 -7/4/2 -6/4/2
f -6/4/2 -7/4/2 -5/4/2
f -5/4/2 -7/4/2 -4/4/2
f -4/4/2 -7/4/2 -3/4/2
f -5/4/2 -4/4/2 -2/4/2
f -2/4/2 -4/4/2 -1/4/2
v 8.5 1 3.5
v 8.5 1 0.5
v 8.5 7 3.5
v 8.5 7 0.5
f -4/3/2 -3/3/2 -2/3/2
f -2/3/2 -3/3/2 -1/3/2
v 9.5 0 15.5
v 9.5 0 -2.5
v 9.5 1 15.5
v 9.5 1 -2.5
f -4/3/2 -3/3/2 -2/3/2
f -2/3/2 -3/3/2 -1/3/2
v 12.5 7 14.5
v 12.5 7 -18.5
v 12.5 11 9.5
v 12.5 11 -13.5
v 12.5 19 9.5
v 12.5 19 -13.5
v 12.5 23 -11.5
v 12.5 23 -18.5
v 12.5 32 8.5
v 12.5 32 3.5
v 12.5 37 9.5
v 12.5 37 8.5
v 12.5 37 4.5
v 12.5 37 3.5
v 12.5 39 9.5
v 12.5 39 3.5
v 12.5 41 14.5
v 12.5 41 -11.5
f -18/5/2 -17/5/2 -16/5/2
f -16/5/2 -17/5/2 -15/5/2
f -18/5/2 -16/5/2 -14/5/2
f -15/5/2 -17/5/2 -13/5/2
f -14/5/2 -13/5/2 -12/5/2
f -13/5/2 -17/5/2 -11/5/2
f -12/5/2 -13/5/2 -11/5/2
f -14/5/2 -12/5/2 -10/5/2
f -10/5/2 -12/5/2 -9/5/2
f -18/5/2 -14/5/2 -8/5/2
f -14/5/2 -10/5/2 -8/5/2
f -10/9/2 -9/9/2 -7/9/2
f -8/5/2 -10/5/2 -7/5/2
f -7/9/2 -9/9/2 -6/9/2
f -9/5/2 -12/5/2 -5/5/2
f -6/9/2 -9/9/2 -5/9/2
f -18/5/2 -8/5/2 -4/5/2
f -5/5/2 -12/5/2 -3/5/2
f -18/5/2 -4/5/2 -2/5/2
f -4/5/2 -3/5/2 -2/5/2
f -3/5/2 -12/5/2 -1/5/2
f -2/5/2 -3/5/2 -1/5/2
v 14.5 37 9.5
v 14.5 37 3.5
v 14.5 39 9.5
v 14.5 39 3.5
f -4/11/2 -3/11/2 -2/11/2
f -2/11/2 -3/11/2 -1/11/2
v 19.5 11 9.5
v 19.5 11 -13.5
v 19.5 19 9.5
v 19.5 19 -13.5
f -4/10/2 -3/10/2 -2/10/2
f -2/10/2 -3/10/2 -1/10/2
v -3.5 28 22.5
v -3.5 34 22.5
v 3.5 28 22.5
v 3.5 34 22.5
f -2/8/3 -3/8/3 -4/8/3
f -1/8/3 -3/8/3 -2/8/3
v -3.5 24 18.5
v -3.5 28 18.5
v 3.5 24 18.5
v 3.5 28 18.5
f -2/4/3 -3/4/3 -4/4/3
f -1/4/3 -3/4/3 -2/4/3
v -9.5 0 15.5
v -9.5 1 15.5
v -7.5 0 15.5
v -7.5 1 15.5
v -5.5 0 15.5
v -5.5 1 15.5
v -3.5 0 15.5
v -3.5 1 15.5
v 3.5 0 15.5
v 3.5 1 15.5
v 5.5 0 15.5
v 5.5 1 15.5
v 7.5 0 15.5
v 7.5 1 15.5
v 9.5 0 15.5
v 9.5 1 15.5
f -14/3/3 -15/3/3 -16/3/3
f -13/3/3 -15/3/3 -14/3/3
f -10/3/3 -11/3/3 -12/3/3
f -9/3/3 -11/3/3 -10/3/3
f -6/3/3 -7/3/3 -8/3/3
f -5/3/3 -7/3/3 -6/3/3
f -2/3/3 -3/3/3 -4/3/3
f -1/3/3 -3/3/3 -2/3/3
v -12.5 7 14.5
v -12.5 41 14.5
v -3.5 7 14.5
v -3.5 24 14.5
v -3.5 28 14.5
v -3.5 34 14.5
v -3.5 41 14.5
v 3.5 7 14.5
v 3.5 24 14.5
v 3.5 28 14.5
v 3.5 34 14.5
v 3.5 41 14.5
v 12.5 7 14.5
v 12.5 41 14.5
f -12/5/3 -13/5/3 -14/5/3
f -11/5/3 -13/5/3 -12/5/3
f -10/5/3 -13/5/3 -11/5/3
f -9/5/3 -13/5/3 -10/5/3
f -8/5/3 -13/5/3 -9/5/3
f -7/10/3 -11/10/3 -12/10/3
f -6/10/3 -11/10/3 -7/10/3
f -4/10/3 -8/10/3 -9/10/3
f -3/10/3 -8/10/3 -4/10/3
f -2/5/3 -5/5/3 -6/5/3
f -2/5/3 -6/5/3 -7/5/3
f -2/5/3 -3/5/3 -4/5/3
f -2/5/3 -4/5/3 -5/5/3
f -1/5/3 -3/5/3 -2/5/3
v -19.5 11 9.5
v -19.5 19 9.5
v -14.5 37 9.5
v -14.5 39 9.5
v -12.5 11 9.5
v -12.5 19 9.5
v -12.5 37 9.5
v -12.5 39 9.5
v -7.5 0 9.5
v -7.5 1 9.5
v -5.5 0 9.5
v -5.5 1 9.5
v 5.5 0 9.5
v 5.5 1 9.5
v 7.5 0 9.5
v 7.5 1 9.5
v 12.5 11 9.5
v 12.5 19 9.5
v 12.5 37 9.5
v 12.5 39 9.5
v 14.5 37 9.5
v 14.5 39 9.5
v 19.5 11 9.5
v 19.5 19 9.5
f -20/10/3 -23/10/3 -24/10/3
f -19/10/3 -23/10/3 -20/10/3
f -18/11/3 -21/11/3 -22/11/3
f -17/11/3 -21/11/3 -18/11/3
f -14/3/3 -15/3/3 -16/3/3
f -13/3/3 -15/3/3 -14/3/3
f -10/3/3 -11/3/3 -12/3/3
f -9/3/3 -11/3/3 -10/3/3
f -4/11/3 -5/11/3 -6/11/3
f -3/11/3 -5/11/3 -4/11/3
f -2/10/3 -7/10/3 -8/10/3
f -1/10/3 -7/10/3 -2/10/3
v -2.5 42 8.5
v -2.5 45 8.5
v -1.5 41 8.5
v -1.5 42 8.5
v 1.5 41 8.5
v 1.5 42 8.5
v 2.5 42 8.5
v 2.5 45 8.5
f -5/4/3 -7/4/3 -8/4/3
f -4/4/3 -5/4/3 -6/4/3
f -3/4/3 -7/4/3 -5/4/3
f -3/4/3 -5/4/3 -4/4/3
f -2/4/3 -7/4/3 -3/4/3
f -1/4/3 -7/4/3 -2/4/3
v -3.5 41 7.5
v -3.5 45 7.5
v -2.5 42 7.5
v -2.5 45 7.5
v -1.5 41 7.5
v -1.5 42 7.5
v 1.5 41 7.5
v 1.5 42 7.5
v 2.5 42 7.5
v 2.5 45 7.5
v 3.5 41 7.5
v 3.5 45 7.5
f -10/4/3 -11/4/3 -12/4/3
f -9/4/3 -11/4/3 -10/4/3
f -8/4/3 -10/4/3 -12/4/3
f -7/4/3 -10/4/3 -8/4/3
f -4/4/3 -5/4/3 -6/4/3
f -2/4/3 -4/4/3 -6/4/3
f -2/4/3 -3/4/3 -4/4/3
f -1/4/3 -3/4/3 -2/4/3
v -6.5 41 4.5
v -6.5 44 4.5
v -5.5 44 4.5
v -5.5 45 4.5
v -3.5 41 4.5
v -3.5 45 4.5
v 3.5 41 4.5
v 3.5 45 4.5
v 5.5 44 4.5
v 5.5 45 4.5
v 6.5 41 4.5
v 6.5 44 4.5
f -10/4/3 -11/4/3 -12/4/3
f -8/4/3 -10/4/3 -12/4/3
f -8/4/3 -9/4/3 -10/4/3
f -7/4/3 -9/4/3 -8/4/3
f -4/4/3 -5/4/3 -6/4/3
f -3/4/3 -5/4/3 -4/4/3
f -2/4/3 -4/4/3 -6/4/3
f -1/4/3 -4/4/3 -2/4/3
v -8.5 1 3.5
v -8.5 7 3.5
v -7.5 41 3.5
v -7.5 44 3.5
v -6.5 41 3.5
v -6.5 44 3.5
v -6.5 45 3.5
v -5.5 1 3.5
v -5.5 7 3.5
v -5.5 44 3.5
v -5.5 45 3.5
v 5.5 1 3.5
v 5.5 7 3.5
v 5.5 44 3.5
v 5.5 45 3.5
v 6.5 41 3.5
v 6.5 44 3.5
v 6.5 45 3.5
v 7.5 41 3.5
v 7.5 44 3.5
v 8.5 1 3.5
v 8.5 7 3.5
f -18/4/3 -19/4/3 -20/4/3
f -17/4/3 -19/4/3 -18/4/3
f -15/3/3 -21/3/3 -22/3/3
f -14/3/3 -21/3/3 -15/3/3
f -13/4/3 -16/4/3 -17/4/3
f -12/4/3 -16/4/3 -13/4/3
f -6/4/3 -8/4/3 -9/4/3
f -5/4/3 -8/4/3 -6/4/3
f -4/4/3 -6/4/3 -7/4/3
f -3/4/3 -6/4/3 -4/4/3
f -2/3/3 -10/3/3 -11/3/3
f -1/3/3 -10/3/3 -2/3/3
v -7.5 44 2.5
v -7.5 45 2.5
v -6.5 44 2.5
v -6.5 45 2.5
v 6.5 44 2.5
v 6.5 45 2.5
v 7.5 44 2.5
v 7.5 45 2.5
f -6/4/3 -7/4/3 -8/4/3
f -5/4/3 -7/4/3 -6/4/3
f -2/4/3 -3/4/3 -4/4/3
f -1/4/3 -3/4/3 -2/4/3
v -14.5 37 3.5
v -14.5 39 3.5
v -12.5 37 3.5
v -12.5 39 3.5
v 12.5 37 3.5
v 12.5 39 3.5
v 14.5 37 3.5
v 14.5 39 3.5
f -8/11/4 -7/11/4 -6/11/4
f -6/11/4 -7/11/4 -5/11/4
f -4/11/4 -3/11/4 -2/11/4
f -2/11/4 -3/11/4 -1/11/4
v -8.5 1 0.5
v -8.5 7 0.5
v -5.5 1 0.5
v -5.5 7 0.5
v 5.5 1 0.5
v 5.5 7 0.5
v 8.5 1 0.5
v 8.5 7 0.5
f -8/3/4 -7/3/4 -6/3/4
f -6/3/4 -7/3/4 -5/3/4
f -4/3/4 -3/3/4 -2/3/4
f -2/3/4 -3/3/4 -1/3/4
v -7.5 44 -0.5
v -7.5 45 -0.5
v -6.5 44 -0.5
v -6.5 45 -0.5
v 6.5 44 -0.5
v 6.5 45 -0.5
v 7.5 44 -0.5
v 7.5 45 -0.5
f -8/4/4 -7/4/4 -6/4/4
f -6/4/4 -7/4/4 -5/4/4
f -4/4/4 -3/4/4 -2/4/4
f -2/4/4 -3/4/4 -1/4/4
v -7.5 41 -1.5
v -7.5 44 -1.5
v -6.5 41 -1.5
v -6.5 44 -1.5
v -6.5 45 -1.5
v -5.5 44 -1.5
v -5.5 45 -1.5
v 5.5 44 -1.5
v 5.5 45 -1.5
v 6.5 41 -1.5
v 6.5 44 -1.5
v 6.5 45 -1.5
v 7.5 41 -1.5
v 7.5 44 -1.5
f -14/4/4 -13/4/4 -12/4/4
f -12/4/4 -13/4/4 -11/4/4
f -11/4/4 -10/4/4 -9/4/4
f -9/4/4 -10/4/4 -8/4/4
f -7/4/4 -6/4/4 -4/4/4
f -4/4/4 -6/4/4 -3/4/4
f -5/4/4 -4/4/4 -2/4/4
f -2/4/4 -4/4/4 -1/4/4
v -9.5 0 -2.5
v -9.5 1 -2.5
v -6.5 41 -2.5
v -6.5 44 -2.5
v -5.5 0 -2.5
v -5.5 1 -2.5
v -5.5 44 -2.5
v -5.5 45 -2.5
v -4.5 0 -2.5
v -4.5 1 -2.5
v -3.5 0 -2.5
v -3.5 1 -2.5
v -3.5 41 -2.5
v -3.5 45 -2.5
v 3.5 0 -2.5
v 3.5 1 -2.5
v 3.5 41 -2.5
v 3.5 45 -2.5
v 4.5 0 -2.5
v 4.5 1 -2.5
v 5.5 0 -2.5
v 5.5 1 -2.5
v 5.5 44 -2.5
v 5.5 45 -2.5
v 6.5 41 -2.5
v 6.5 44 -2.5
v 9.5 0 -2.5
v 9.5 1 -2.5
f -28/3/4 -27/3/4 -24/3/4
f -24/3/4 -27/3/4 -23/3/4
f -26/4/4 -25/4/4 -22/4/4
f -20/3/4 -19/3/4 -18/3/4
f -18/3/4 -19/3/4 -17/3/4
f -22/4/4 -21/4/4 -16/4/4
f -26/4/4 -22/4/4 -16/4/4
f -16/4/4 -21/4/4 -15/4/4
f -14/3/4 -13/3/4 -10/3/4
f -10/3/4 -13/3/4 -9/3/4
f -12/4/4 -11/4/4 -6/4/4
f -6/4/4 -11/4/4 -5/4/4
f -12/4/4 -6/4/4 -4/4/4
f -4/4/4 -6/4/4 -3/4/4
f -8/3/4 -7/3/4 -2/3/4
f -2/3/4 -7/3/4 -1/3/4
v -5.5 0 -3.5
v -5.5 1 -3.5
v -4.5 0 -3.5
v -4.5 1 -3.5
v 4.5 0 -3.5
v 4.5 1 -3.5
v 5.5 0 -3.5
v 5.5 1 -3.5
f -8/3/4 -7/3/4 -6/3/4
f -6/3/4 -7/3/4 -5/3/4
f -4/3/4 -3/3/4 -2/3/4
f -2/3/4 -3/3/4 -1/3/4
v -3.5 41 -4.5
v -3.5 45 -4.5
v -2.5 42 -4.5
v -2.5 45 -4.5
v -1.5 41 -4.5
v -1.5 42 -4.5
v 1.5 41 -4.5
v 1.5 42 -4.5
v 2.5 42 -4.5
v 2.5 45 -4.5
v 3.5 41 -4.5
v 3.5 45 -4.5
f -12/4/4 -11/4/4 -10/4/4
f -10/4/4 -11/4/4 -9/4/4
f -12/4/4 -10/4/4 -8/4/4
f -8/4/4 -10/4/4 -7/4/4
f -6/4/4 -5/4/4 -4/4/4
f -6/4/4 -4/4/4 -2/4/4
f -4/4/4 -3/4/4 -2/4/4
f -2/4/4 -3/4/4 -1/4/4
v -2.5 42 -5.5
v -2.5 45 -5.5
v -1.5 41 -5.5
v -1.5 42 -5.5
v 1.5 41 -5.5
v 1.5 42 -5.5
v 2.5 42 -5.5
v 2.5 45 -5.5
f -8/4/4 -7/4/4 -5/4/4
f -6/4/4 -5/4/4 -4/4/4
f -5/4/4 -7/4/4 -3/4/4
f -4/4/4 -5/4/4 -3/4/4
f -3/4/4 -7/4/4 -2/4/4
f -2/4/4 -7/4/4 -1/4/4
v -12.5 23 -11.5
v -12.5 41 -11.5
v -3.5 23 -11.5
v -3.5 41 -11.5
v 3.5 23 -11.5
v 3.5 41 -11.5
v 12.5 23 -11.5
v 12.5 41 -11.5
f -8/5/4 -7/5/4 -6/5/4
f -6/5/4 -7/5/4 -5/5/4
f -6/10/4 -5/10/4 -4/10/4
f -4/10/4 -5/10/4 -3/10/4
f -4/5/4 -3/5/4 -2/5/4
f -2/5/4 -3/5/4 -1/5/4
v -19.5 11 -13.5
v -19.5 19 -13.5
v -12.5 11 -13.5
v -12.5 19 -13.5
v 12.5 11 -13.5
v 12.5 19 -13.5
v 19.5 11 -13.5
v 19.5 19 -13.5
f -8/10/4 -7/10/4 -6/10/4
f -6/10/4 -7/10/4 -5/10/4
f -4/10/4 -3/10/4 -2/10/4
f -2/10/4 -3/10/4 -1/10/4
v -12.5 7 -18.5
v -12.5 23 -18.5
v -7.5 7 -18.5
v -7.5 23 -18.5
v 7.5 7 -18.5
v 7.5 23 -18.5
v 12.5 7 -18.5
v 12.5 23 -18.5
f -8/5/4 -7/5/4 -6/5/4
f -6/5/4 -7/5/4 -5/5/4
f -4/5/4 -3/5/4 -2/5/4
f -2/5/4 -3/5/4 -1/5/4
v -7.5 7 -22.5
v -7.5 23 -22.5
v -3.5 7 -22.5
v -3.5 23 -22.5
v 3.5 7 -22.5
v 3.5 23 -22.5
v 7.5 7 -22.5
v 7.5 23 -22.5
f -8/5/4 -7/5/4 -6/5/4
f -6/5/4 -7/5/4 -5/5/4
f -6/10/4 -5/10/4 -4/10/4
f -4/10/4 -5/10/4 -3/10/4
f -4/5/4 -3/5/4 -2/5/4
f -2/5/4 -3/5/4 -1/5/4
v -9.5 0 15.5
v -7.5 0 15.5
v -5.5 0 15.5
v -3.5 0 15.5
v 3.5 0 15.5
v 5.5 0 15.5
v 7.5 0 15.5
v 9.5 0 15.5
v -7.5 0 9.5
v -5.5 0 9.5
v 5.5 0 9.5
v 7.5 0 9.5
v -9.5 0 -2.5
v -5.5 0 -2.5
v -4.5 0 -2.5
v -3.5 0 -2.5
v 3.5 0 -2.5
v 4.5 0 -2.5
v 5.5 0 -2.5
v 9.5 0 -2.5
v -5.5 0 -3.5
v -4.5 0 -3.5
v 4.5 0 -3.5
v 5.5 0 -3.5
f -16/3/5 -23/3/5 -24/3/5
f -15/3/5 -21/3/5 -22/3/5
f -14/3/5 -19/3/5 -20/3/5
f -13/3/5 -17/3/5 -18/3/5
f -12/3/5 -16/3/5 -24/3/5
f -12/3/5 -15/3/5 -16/3/5
f -11/3/5 -21/3/5 -15/3/5
f -11/3/5 -15/3/5 -12/3/5
f -10/3/5 -21/3/5 -11/3/5
f -9/3/5 -21/3/5 -10/3/5
f -8/3/5 -14/3/5 -20/3/5
f -8/3/5 -13/3/5 -14/3/5
f -7/3/5 -13/3/5 -8/3/5
f -6/3/5 -13/3/5 -7/3/5
f -5/3/5 -17/3/5 -13/3/5
f -5/3/5 -13/3/5 -6/3/5
f -4/3/5 -10/3/5 -11/3/5
f -3/3/5 -10/3/5 -4/3/5
f -2/3/5 -6/3/5 -7/3/5
f -1/3/5 -6/3/5 -2/3/5
v -12.5 7 14.5
v -3.5 7 14.5
v 3.5 7 14.5
v 12.5 7 14.5
v -3.5 7 11.5
v 3.5 7 11.5
v -8.5 7 3.5
v -5.5 7 3.5
v 5.5 7 3.5
v 8.5 7 3.5
v -8.5 7 0.5
v -5.5 7 0.5
v 5.5 7 0.5
v 8.5 7 0.5
v -12.5 7 -18.5
v -7.5 7 -18.5
v 7.5 7 -18.5
v 12.5 7 -18.5
v -3.5 7 -19.5
v 3.5 7 -19.5
v -7.5 7 -22.5
v -3.5 7 -22.5
v 3.5 7 -22.5
v 7.5 7 -22.5
f -20/5/5 -23/5/5 -24/5/5
f -20/10/5 -22/10/5 -23/10/5
f -19/5/5 -21/5/5 -22/5/5
f -19/10/5 -22/10/5 -20/10/5
f -18/5/5 -20/5/5 -24/5/5
f -18/5/5 -19/5/5 -20/5/5
f -17/5/5 -19/5/5 -18/5/5
f -16/5/5 -21/5/5 -19/5/5
f -16/5/5 -19/5/5 -17/5/5
f -15/5/5 -21/5/5 -16/5/5
f -14/5/5 -18/5/5 -24/5/5
f -13/5/5 -16/5/5 -17/5/5
f -12/5/5 -16/5/5 -13/5/5
f -11/5/5 -21/5/5 -15/5/5
f -10/5/5 -12/5/5 -13/5/5
f -10/5/5 -11/5/5 -12/5/5
f -10/5/5 -14/5/5 -24/5/5
f -10/5/5 -13/5/5 -14/5/5
f -9/5/5 -11/5/5 -10/5/5
f -8/5/5 -11/5/5 -9/5/5
f -7/5/5 -21/5/5 -11/5/5
f -7/5/5 -11/5/5 -8/5/5
f -6/5/5 -8/5/5 -9/5/5
f -5/5/5 -8/5/5 -6/5/5
f -4/5/5 -6/5/5 -9/5/5
f -3/10/5 -5/10/5 -6/10/5
f -3/5/5 -6/5/5 -4/5/5
f -2/5/5 -8/5/5 -5/5/5
f -2/10/5 -5/10/5 -3/10/5
f -1/5/5 -8/5/5 -2/5/5
v -19.5 11 9.5
v -12.5 11 9.5
v 12.5 11 9.5
v 19.5 11 9.5
v -19.5 11 -13.5
v -12.5 11 -13.5
v 12.5 11 -13.5
v 19.5 11 -13.5
f -4/10/5 -7/10/5 -8/10/5
f -3/10/5 -7/10/5 -4/10/5
f -2/10/5 -5/10/5 -6/10/5
f -1/10/5 -5/10/5 -2/10/5
v -3.5 24 18.5
v 3.5 24 18.5
v -3.5 24 14.5
v 3.5 24 14.5
f -2/4/5 -3/4/5 -4/4/5
f -1/4/5 -3/4/5 -2/4/5
v -3.5 28 22.5
v 3.5 28 22.5
v -3.5 28 18.5
v 3.5 28 18.5
f -2/8/5 -3/8/5 -4/8/5
f -1/8/5 -3/8/5 -2/8/5
v -14.5 37 9.5
v -12.5 37 9.5
v 12.5 37 9.5
v 14.5 37 9.5
v -13.5 37 8.5
v -12.5 37 8.5
v 12.5 37 8.5
v 13.5 37 8.5
v -13.5 37 4.5
v -12.5 37 4.5
v 12.5 37 4.5
v 13.5 37 4.5
v -14.5 37 3.5
v -12.5 37 3.5
v 12.5 37 3.5
v 14.5 37 3.5
f -12/11/5 -15/11/5 -16/11/5
f -11/11/5 -15/11/5 -12/11/5
f -10/11/5 -13/11/5 -14/11/5
f -9/11/5 -13/11/5 -10/11/5
f -8/7/5 -11/7/5 -12/7/5
f -8/11/5 -12/11/5 -16/11/5
f -7/7/5 -11/7/5 -8/7/5
f -6/7/5 -9/7/5 -10/7/5
f -5/11/5 -13/11/5 -9/11/5
f -5/7/5 -9/7/5 -6/7/5
f -4/11/5 -7/11/5 -8/11/5
f -4/11/5 -8/11/5 -16/11/5
f -3/11/5 -7/11/5 -4/11/5
f -2/11/5 -5/11/5 -6/11/5
f -1/11/5 -13/11/5 -5/11/5
f -1/11/5 -5/11/5 -2/11/5
v -2.5 42 8.5
v -1.5 42 8.5
v 1.5 42 8.5
v 2.5 42 8.5
v -2.5 42 7.5
v -1.5 42 7.5
v 1.5 42 7.5
v 2.5 42 7.5
v -2.5 42 -4.5
v -1.5 42 -4.5
v 1.5 42 -4.5
v 2.5 42 -4.5
v -2.5 42 -5.5
v -1.5 42 -5.5
v 1.5 42 -5.5
v 2.5 42 -5.5
f -12/4/5 -15/4/5 -16/4/5
f -11/4/5 -15/4/5 -12/4/5
f -10/4/5 -13/4/5 -14/4/5
f -9/4/5 -13/4/5 -10/4/5
f -4/4/5 -7/4/5 -8/4/5
f -3/4/5 -7/4/5 -4/4/5
f -2/4/5 -5/4/5 -6/4/5
f -1/4/5 -5/4/5 -2/4/5
v -9.5 1 15.5
v -7.5 1 15.5
v -5.5 1 15.5
v -3.5 1 15.5
v 3.5 1 15.5
v 5.5 1 15.5
v 7.5 1 15.5
v 9.5 1 15.5
v -7.5 1 9.5
v -5.5 1 9.5
v 5.5 1 9.5
v 7.5 1 9.5
v -8.5 1 3.5
v -5.5 1 3.5
v 5.5 1 3.5
v 8.5 1 3.5
v -8.5 1 0.5
v -5.5 1 0.5
v 5.5 1 0.5
v 8.5 1 0.5
v -9.5 1 -2.5
v -5.5 1 -2.5
v -4.5 1 -2.5
v -3.5 1 -2.5
v 3.5 1 -2.5
v 4.5 1 -2.5
v 5.5 1 -2.5
v 9.5 1 -2.5
v -5.5 1 -3.5
v -4.5 1 -3.5
v 4.5 1 -3.5
v 5.5 1 -3.5
f -32/3/6 -31/3/6 -24/3/6
f -30/3/6 -29/3/6 -23/3/6
f -28/3/6 -27/3/6 -22/3/6
f -26/3/6 -25/3/6 -21/3/6
f -32/3/6 -24/3/6 -20/3/6
f -24/3/6 -23/3/6 -20/3/6
f -23/3/6 -29/3/6 -19/3/6
f -20/3/6 -23/3/6 -19/3/6
f -28/3/6 -22/3/6 -18/3/6
f -22/3/6 -21/3/6 -18/3/6
f -21/3/6 -25/3/6 -17/3/6
f -18/3/6 -21/3/6 -17/3/6
f -32/3/6 -20/3/6 -16/3/6
f -19/3/6 -29/3/6 -15/3/6
f -28/3/6 -18/3/6 -14/3/6
f -17/3/6 -25/3/6 -13/3/6
f -32/3/6 -16/3/6 -12/3/6
f -16/3/6 -15/3/6 -12/3/6
f -15/3/6 -29/3/6 -11/3/6
f -12/3/6 -15/3/6 -11/3/6
f -11/3/6 -29/3/6 -10/3/6
f -10/3/6 -29/3/6 -9/3/6
f -14/3/6 -13/3/6 -8/3/6
f -28/3/6 -14/3/6 -8/3/6
f -8/3/6 -13/3/6 -7/3/6
f -7/3/6 -13/3/6 -6/3/6
f -13/3/6 -25/3/6 -5/3/6
f -6/3/6 -13/3/6 -5/3/6
f -11/3/6 -10/3/6 -4/3/6
f -4/3/6 -10/3/6 -3/3/6
f -7/3/6 -6/3/6 -2/3/6
f -2/3/6 -6/3/6 -1/3/6
v -19.5 19 9.5
v -12.5 19 9.5
v 12.5 19 9.5
v 19.5 19 9.5
v -19.5 19 -13.5
v -12.5 19 -13.5
v 12.5 19 -13.5
v 19.5 19 -13.5
f -8/10/6 -7/10/6 -4/10/6
f -4/10/6 -7/10/6 -3/10/6
f -6/10/6 -5/10/6 -2/10/6
f -2/10/6 -5/10/6 -1/10/6
v -12.5 23 -11.5
v -3.5 23 -11.5
v 3.5 23 -11.5
v 12.5 23 -11.5
v -12.5 23 -18.5
v -7.5 23 -18.5
v 7.5 23 -18.5
v 12.5 23 -18.5
v -7.5 23 -22.5
v -3.5 23 -22.5
v 3.5 23 -22.5
v 7.5 23 -22.5
f -12/5/6 -11/5/6 -8/5/6
f -8/5/6 -11/5/6 -7/5/6
f -10/5/6 -9/5/6 -6/5/6
f -6/5/6 -9/5/6 -5/5/6
f -7/5/6 -11/5/6 -4/5/6
f -11/10/6 -10/10/6 -3/10/6
f -4/5/6 -11/5/6 -3/5/6
f -10/5/6 -6/5/6 -2/5/6
f -3/10/6 -10/10/6 -2/10/6
f -2/5/6 -6/5/6 -1/5/6
v -3.5 34 22.5
v 3.5 34 22.5
v -3.5 34 14.5
v 3.5 34 14.5
f -4/8/6 -3/8/6 -2/8/6
f -2/8/6 -3/8/6 -1/8/6
v -14.5 39 9.5
v -12.5 39 9.5
v 12.5 39 9.5
v 14.5 39 9.5
v -14.5 39 3.5
v -12.5 39 3.5
v 12.5 39 3.5
v 14.5 39 3.5
f -8/11/6 -7/11/6 -4/11/6
f -4/11/6 -7/11/6 -3/11/6
f -6/11/6 -5/11/6 -2/11/6
f -2/11/6 -5/11/6 -1/11/6
v -12.5 41 14.5
v -3.5 41 14.5
v 3.5 41 14.5
v 12.5 41 14.5
v -1.5 41 8.5
v 1.5 41 8.5
v -3.5 41 7.5
v -1.5 41 7.5
v 1.5 41 7.5
v 3.5 41 7.5
v -6.5 41 4.5
v -3.5 41 4.5
v 3.5 41 4.5
v 6.5 41 4.5
v -7.5 41 3.5
v -6.5 41 3.5
v 6.5 41 3.5
v 7.5 41 3.5
v -7.5 41 -1.5
v -6.5 41 -1.5
v 6.5 41 -1.5
v 7.5 41 -1.5
v -6.5 41 -2.5
v -3.5 41 -2.5
v 3.5 41 -2.5
v 6.5 41 -2.5
v -3.5 41 -4.5
v -1.5 41 -4.5
v 1.5 41 -4.5
v 3.5 41 -4.5
v -1.5 41 -5.5
v 1.5 41 -5.5
v -12.5 41 -11.5
v -3.5 41 -11.5
v 3.5 41 -11.5
v 12.5 41 -11.5
f -35/10/6 -34/10/6 -32/10/6
f -32/10/6 -34/10/6 -31/10/6
f -36/5/6 -35/5/6 -30/5/6
f -35/10/6 -32/10/6 -30/10/6
f -30/10/6 -32/10/6 -29/10/6
f -31/10/6 -34/10/6 -28/10/6
f -34/5/6 -33/5/6 -27/5/6
f -28/10/6 -34/10/6 -27/10/6
f -36/5/6 -30/5/6 -26/5/6
f -26/5/6 -30/5/6 -25/5/6
f -27/5/6 -33/5/6 -24/5/6
f -24/5/6 -33/5/6 -23/5/6
f -36/5/6 -26/5/6 -22/5/6
f -22/5/6 -26/5/6 -21/5/6
f -23/5/6 -33/5/6 -20/5/6
f -20/5/6 -33/5/6 -19/5/6
f -36/5/6 -22/5/6 -18/5/6
f -19/5/6 -33/5/6 -15/5/6
f -18/5/6 -17/5/6 -14/5/6
f -16/5/6 -15/5/6 -11/5/6
f -14/5/6 -13/5/6 -10/5/6
f -12/5/6 -11/5/6 -7/5/6
f -10/10/6 -9/10/6 -6/10/6
f -8/10/6 -7/10/6 -5/10/6
f -36/5/6 -18/5/6 -4/5/6
f -18/5/6 -14/5/6 -4/5/6
f -14/5/6 -10/5/6 -4/5/6
f -10/10/6 -6/10/6 -3/10/6
f -4/5/6 -10/5/6 -3/5/6
f -6/10/6 -5/10/6 -3/10/6
f -7/5/6 -11/5/6 -2/5/6
f -3/10/6 -5/10/6 -2/10/6
f -5/10/6 -7/10/6 -2/10/6
f -15/5/6 -33/5/6 -1/5/6
f -2/5/6 -11/5/6 -1/5/6
f -11/5/6 -15/5/6 -1/5/6
v -6.5 44 4.5
v -5.5 44 4.5
v 5.5 44 4.5
v 6.5 44 4.5
v -7.5 44 3.5
v -6.5 44 3.5
v -5.5 44 3.5
v 5.5 44 3.5
v 6.5 44 3.5
v 7.5 44 3.5
v -7.5 44 2.5
v -6.5 44 2.5
v 6.5 44 2.5
v 7.5 44 2.5
v -7.5 44 -0.5
v -6.5 44 -0.5
v 6.5 44 -0.5
v 7.5 44 -0.5
v -7.5 44 -1.5
v -6.5 44 -1.5
v -5.5 44 -1.5
v 5.5 44 -1.5
v 6.5 44 -1.5
v 7.5 44 -1.5
v -6.5 44 -2.5
v -5.5 44 -2.5
v 5.5 44 -2.5
v 6.5 44 -2.5
f -28/4/6 -27/4/6 -23/4/6
f -23/4/6 -27/4/6 -22/4/6
f -26/4/6 -25/4/6 -21/4/6
f -21/4/6 -25/4/6 -20/4/6
f -24/4/6 -23/4/6 -18/4/6
f -18/4/6 -23/4/6 -17/4/6
f -20/4/6 -19/4/6 -16/4/6
f -16/4/6 -19/4/6 -15/4/6
f -14/4/6 -13/4/6 -10/4/6
f -10/4/6 -13/4/6 -9/4/6
f -12/4/6 -11/4/6 -6/4/6
f -6/4/6 -11/4/6 -5/4/6
f -9/4/6 -8/4/6 -4/4/6
f -4/4/6 -8/4/6 -3/4/6
f -7/4/6 -6/4/6 -2/4/6
f -2/4/6 -6/4/6 -1/4/6
v -2.5 45 8.5
v 2.5 45 8.5
v -3.5 45 7.5
v -2.5 45 7.5
v 2.5 45 7.5
v 3.5 45 7.5
v -5.5 45 4.5
v -3.5 45 4.5
v 3.5 45 4.5
v 5.5 45 4.5
v -6.5 45 3.5
v -5.5 45 3.5
v 5.5 45 3.5
v 6.5 45 3.5
v -7.5 45 2.5
v -6.5 45 2.5
v 6.5 45 2.5
v 7.5 45 2.5
v -7.5 45 -0.5
v -6.5 45 -0.5
v 6.5 45 -0.5
v 7.5 45 -0.5
v -6.5 45 -1.5
v -5.5 45 -1.5
v 5.5 45 -1.5
v 6.5 45 -1.5
v -5.5 45 -2.5
v -3.5 45 -2.5
v 3.5 45 -2.5
v 5.5 45 -2.5
v -3.5 45 -4.5
v -2.5 45 -4.5
v 2.5 45 -4.5
v 3.5 45 -4.5
v -2.5 45 -5.5
v 2.5 45 -5.5
f -36/4/6 -35/4/6 -33/4/6
f -33/4/6 -35/4/6 -32/4/6
f -34/4/6 -33/4/6 -29/4/6
f -32/4/6 -31/4/6 -29/4/6
f -33/4/6 -32/4/6 -29/4/6
f -29/4/6 -31/4/6 -28/4/6
f -30/4/6 -29/4/6 -25/4/6
f -28/4/6 -27/4/6 -25/4/6
f -29/4/6 -28/4/6 -25/4/6
f -25/4/6 -27/4/6 -24/4/6
f -26/4/6 -25/4/6 -21/4/6
f -24/4/6 -23/4/6 -21/4/6
f -25/4/6 -24/4/6 -21/4/6
f -21/4/6 -23/4/6 -20/4/6
f -22/4/6 -21/4/6 -18/4/6
f -20/4/6 -19/4/6 -18/4/6
f -21/4/6 -20/4/6 -18/4/6
f -18/4/6 -19/4/6 -17/4/6
f -17/4/6 -19/4/6 -16/4/6
f -16/4/6 -19/4/6 -15/4/6
f -17/4/6 -16/4/6 -14/4/6
f -14/4/6 -16/4/6 -13/4/6
f -13/4/6 -16/4/6 -12/4/6
f -12/4/6 -16/4/6 -11/4/6
f -13/4/6 -12/4/6 -10/4/6
f -10/4/6 -12/4/6 -9/4/6
f -9/4/6 -12/4/6 -8/4/6
f -8/4/6 -12/4/6 -7/4/6
f -9/4/6 -8/4/6 -6/4/6
f -6/4/6 -8/4/6 -5/4/6
f -5/4/6 -8/4/6 -4/4/6
f -4/4/6 -8/4/6 -3/4/6
f -5/4/6 -4/4/6 -2/4/6
f -2/4/6 -4/4/6 -1/4/6
