# MagicaVoxel @ ephtracy

# material
mtllib log-tree001.mtl
usemtl palette

# normals
vn -1 0 0
vn 1 0 0
vn 0 0 1
vn 0 0 -1
vn 0 -1 0
vn 0 1 0

# texcoords
vt 0.271484 0.5
vt 0.302734 0.5
vt 0.310547 0.5

# verts and faces
v -3.5 0 22.5
v -3.5 0 21.5
v -3.5 0 15.5
v -3.5 0 12.5
v -3.5 0 2.5
v -3.5 0 -0.5
v -3.5 0 -12.5
v -3.5 0 -13.5
v -3.5 0 -14.5
v -3.5 0 -16.5
v -3.5 0 -17.5
v -3.5 0 -22.5
v -3.5 1 22.5
v -3.5 1 21.5
v -3.5 1 15.5
v -3.5 1 12.5
v -3.5 1 3.5
v -3.5 1 2.5
v -3.5 1 0.5
v -3.5 1 -0.5
v -3.5 1 -1.5
v -3.5 1 -12.5
v -3.5 1 -13.5
v -3.5 1 -14.5
v -3.5 1 -16.5
v -3.5 1 -17.5
v -3.5 1 -18.5
v -3.5 1 -20.5
v -3.5 1 -21.5
v -3.5 2 20.5
v -3.5 2 18.5
v -3.5 2 15.5
v -3.5 2 14.5
v -3.5 2 11.5
v -3.5 2 10.5
v -3.5 2 9.5
v -3.5 2 7.5
v -3.5 2 5.5
v -3.5 2 3.5
v -3.5 2 1.5
v -3.5 2 0.5
v -3.5 2 -1.5
v -3.5 2 -2.5
v -3.5 2 -4.5
v -3.5 2 -10.5
v -3.5 2 -11.5
v -3.5 2 -19.5
v -3.5 2 -20.5
v -3.5 3 22.5
v -3.5 3 20.5
v -3.5 3 18.5
v -3.5 3 17.5
v -3.5 3 15.5
v -3.5 3 14.5
v -3.5 3 12.5
v -3.5 3 11.5
v -3.5 3 10.5
v -3.5 3 9.5
v -3.5 3 8.5
v -3.5 3 7.5
v -3.5 3 5.5
v -3.5 3 -0.5
v -3.5 3 -1.5
v -3.5 3 -2.5
v -3.5 3 -4.5
v -3.5 3 -10.5
v -3.5 3 -11.5
v -3.5 3 -14.5
v -3.5 3 -16.5
v -3.5 3 -17.5
v -3.5 3 -18.5
v -3.5 3 -19.5
v -3.5 3 -21.5
v -3.5 3 -22.5
v -3.5 4 22.5
v -3.5 4 17.5
v -3.5 4 15.5
v -3.5 4 12.5
v -3.5 4 8.5
v -3.5 4 2.5
v -3.5 4 1.5
v -3.5 4 -1.5
v -3.5 4 -4.5
v -3.5 4 -10.5
v -3.5 4 -14.5
v -3.5 4 -16.5
v -3.5 4 -17.5
v -3.5 4 -22.5
f -76/3/1 -87/3/1 -88/3/1
f -75/1/1 -86/1/1 -87/1/1
f -75/3/1 -87/3/1 -76/3/1
f -74/3/1 -85/3/1 -86/3/1
f -74/1/1 -86/1/1 -75/1/1
f -73/1/1 -84/1/1 -85/1/1
f -73/3/1 -85/3/1 -74/3/1
f -72/1/1 -84/1/1 -73/1/1
f -71/3/1 -83/3/1 -84/3/1
f -71/1/1 -84/1/1 -72/1/1
f -70/3/1 -83/3/1 -71/3/1
f -69/1/1 -82/1/1 -83/1/1
f -69/3/1 -83/3/1 -70/3/1
f -68/1/1 -82/1/1 -69/1/1
f -67/3/1 -81/3/1 -82/3/1
f -67/1/1 -82/1/1 -68/1/1
f -66/1/1 -80/1/1 -81/1/1
f -66/3/1 -81/3/1 -67/3/1
f -65/3/1 -79/3/1 -80/3/1
f -65/1/1 -80/1/1 -66/1/1
f -64/2/1 -78/2/1 -79/2/1
f -64/3/1 -79/3/1 -65/3/1
f -63/1/1 -77/1/1 -78/1/1
f -63/2/1 -78/2/1 -64/2/1
f -62/1/1 -77/1/1 -63/1/1
f -61/1/1 -77/1/1 -62/1/1
f -60/1/1 -77/1/1 -61/1/1
f -59/1/1 -75/1/1 -76/1/1
f -59/1/1 -74/1/1 -75/1/1
f -59/1/1 -72/1/1 -73/1/1
f -59/1/1 -73/1/1 -74/1/1
f -58/1/1 -72/1/1 -59/1/1
f -57/1/1 -72/1/1 -58/1/1
f -56/1/1 -72/1/1 -57/1/1
f -55/1/1 -72/1/1 -56/1/1
f -54/1/1 -72/1/1 -55/1/1
f -53/1/1 -72/1/1 -54/1/1
f -52/1/1 -72/1/1 -53/1/1
f -51/1/1 -72/1/1 -52/1/1
f -50/3/1 -71/3/1 -72/3/1
f -50/1/1 -72/1/1 -51/1/1
f -49/1/1 -70/1/1 -71/1/1
f -48/3/1 -69/3/1 -70/3/1
f -48/1/1 -70/1/1 -49/1/1
f -47/1/1 -64/1/1 -65/1/1
f -47/2/1 -68/2/1 -69/2/1
f -47/1/1 -67/1/1 -68/1/1
f -47/1/1 -66/1/1 -67/1/1
f -47/1/1 -65/1/1 -66/1/1
f -47/1/1 -63/1/1 -64/1/1
f -46/1/1 -63/1/1 -47/1/1
f -45/1/1 -63/1/1 -46/1/1
f -44/1/1 -63/1/1 -45/1/1
f -43/1/1 -63/1/1 -44/1/1
f -42/1/1 -61/1/1 -62/1/1
f -41/3/1 -60/3/1 -61/3/1
f -41/1/1 -61/1/1 -42/1/1
f -40/1/1 -59/1/1 -76/1/1
f -39/3/1 -58/3/1 -59/3/1
f -39/1/1 -59/1/1 -40/1/1
f -38/1/1 -57/1/1 -58/1/1
f -38/3/1 -58/3/1 -39/3/1
f -37/1/1 -57/1/1 -38/1/1
f -36/3/1 -56/3/1 -57/3/1
f -36/1/1 -57/1/1 -37/1/1
f -35/1/1 -55/1/1 -56/1/1
f -35/3/1 -56/3/1 -36/3/1
f -34/1/1 -55/1/1 -35/1/1
f -33/3/1 -54/3/1 -55/3/1
f -33/1/1 -55/1/1 -34/1/1
f -32/1/1 -53/1/1 -54/1/1
f -32/3/1 -54/3/1 -33/3/1
f -31/3/1 -52/3/1 -53/3/1
f -31/1/1 -53/1/1 -32/1/1
f -30/3/1 -52/3/1 -31/3/1
f -29/1/1 -51/1/1 -52/1/1
f -29/3/1 -52/3/1 -30/3/1
f -28/3/1 -50/3/1 -51/3/1
f -28/1/1 -51/1/1 -29/1/1
f -27/3/1 -69/3/1 -48/3/1
f -27/3/1 -48/3/1 -49/3/1
f -27/2/1 -47/2/1 -69/2/1
f -27/2/1 -46/2/1 -47/2/1
f -26/2/1 -46/2/1 -27/2/1
f -25/3/1 -45/3/1 -46/3/1
f -25/2/1 -46/2/1 -26/2/1
f -24/1/1 -44/1/1 -45/1/1
f -24/3/1 -45/3/1 -25/3/1
f -23/3/1 -43/3/1 -44/3/1
f -23/1/1 -44/1/1 -24/1/1
f -22/1/1 -63/1/1 -43/1/1
f -22/3/1 -43/3/1 -23/3/1
f -21/1/1 -63/1/1 -22/1/1
f -20/1/1 -63/1/1 -21/1/1
f -19/2/1 -62/2/1 -63/2/1
f -19/1/1 -63/1/1 -20/1/1
f -18/1/1 -42/1/1 -62/1/1
f -18/2/1 -62/2/1 -19/2/1
f -17/3/1 -41/3/1 -42/3/1
f -17/1/1 -42/1/1 -18/1/1
f -16/1/1 -77/1/1 -60/1/1
f -16/3/1 -41/3/1 -17/3/1
f -16/3/1 -60/3/1 -41/3/1
f -15/1/1 -77/1/1 -16/1/1
f -14/3/1 -39/3/1 -40/3/1
f -14/3/1 -37/3/1 -38/3/1
f -14/3/1 -38/3/1 -39/3/1
f -13/2/1 -36/2/1 -37/2/1
f -13/3/1 -37/3/1 -14/3/1
f -12/3/1 -34/3/1 -35/3/1
f -12/2/1 -36/2/1 -13/2/1
f -12/3/1 -35/3/1 -36/3/1
f -11/2/1 -32/2/1 -33/2/1
f -11/3/1 -34/3/1 -12/3/1
f -11/2/1 -33/2/1 -34/2/1
f -11/2/1 -30/2/1 -31/2/1
f -11/2/1 -31/2/1 -32/2/1
f -10/3/1 -28/3/1 -29/3/1
f -10/2/1 -30/2/1 -11/2/1
f -10/3/1 -29/3/1 -30/3/1
f -9/3/1 -50/3/1 -28/3/1
f -9/3/1 -28/3/1 -10/3/1
f -9/3/1 -71/3/1 -50/3/1
f -9/1/1 -49/1/1 -71/1/1
f -8/3/1 -27/3/1 -49/3/1
f -8/1/1 -49/1/1 -9/1/1
f -8/3/1 -26/3/1 -27/3/1
f -7/2/1 -25/2/1 -26/2/1
f -7/3/1 -26/3/1 -8/3/1
f -7/2/1 -24/2/1 -25/2/1
f -6/3/1 -23/3/1 -24/3/1
f -6/2/1 -24/2/1 -7/2/1
f -5/2/1 -22/2/1 -23/2/1
f -5/3/1 -23/3/1 -6/3/1
f -5/2/1 -21/2/1 -22/2/1
f -4/3/1 -20/3/1 -21/3/1
f -4/2/1 -21/2/1 -5/2/1
f -3/2/1 -19/2/1 -20/2/1
f -3/3/1 -20/3/1 -4/3/1
f -2/3/1 -17/3/1 -18/3/1
f -2/2/1 -19/2/1 -3/2/1
f -2/3/1 -18/3/1 -19/3/1
f -2/3/1 -15/3/1 -16/3/1
f -2/3/1 -16/3/1 -17/3/1
f -1/3/1 -15/3/1 -2/3/1
v 3.5 0 22.5
v 3.5 0 7.5
v 3.5 0 3.5
v 3.5 0 2.5
v 3.5 0 1.5
v 3.5 0 0.5
v 3.5 0 -1.5
v 3.5 0 -6.5
v 3.5 0 -9.5
v 3.5 0 -22.5
v 3.5 1 11.5
v 3.5 1 7.5
v 3.5 1 4.5
v 3.5 1 3.5
v 3.5 1 2.5
v 3.5 1 1.5
v 3.5 1 0.5
v 3.5 1 -6.5
v 3.5 1 -9.5
v 3.5 1 -20.5
v 3.5 1 -22.5
v 3.5 2 20.5
v 3.5 2 18.5
v 3.5 2 15.5
v 3.5 2 14.5
v 3.5 2 11.5
v 3.5 2 10.5
v 3.5 2 9.5
v 3.5 2 7.5
v 3.5 2 4.5
v 3.5 2 2.5
v 3.5 2 1.5
v 3.5 2 -0.5
v 3.5 2 -1.5
v 3.5 2 -4.5
v 3.5 2 -10.5
v 3.5 2 -11.5
v 3.5 2 -19.5
v 3.5 2 -20.5
v 3.5 2 -21.5
v 3.5 2 -22.5
v 3.5 3 22.5
v 3.5 3 20.5
v 3.5 3 18.5
v 3.5 3 15.5
v 3.5 3 14.5
v 3.5 3 11.5
v 3.5 3 10.5
v 3.5 3 9.5
v 3.5 3 8.5
v 3.5 3 7.5
v 3.5 3 6.5
v 3.5 3 4.5
v 3.5 3 -0.5
v 3.5 3 -1.5
v 3.5 3 -4.5
v 3.5 3 -8.5
v 3.5 3 -10.5
v 3.5 3 -11.5
v 3.5 3 -19.5
v 3.5 3 -20.5
v 3.5 3 -21.5
v 3.5 3 -22.5
v 3.5 4 22.5
v 3.5 4 11.5
v 3.5 4 10.5
v 3.5 4 9.5
v 3.5 4 8.5
v 3.5 4 6.5
v 3.5 4 2.5
v 3.5 4 1.5
v 3.5 4 -4.5
v 3.5 4 -8.5
v 3.5 4 -10.5
v 3.5 4 -11.5
v 3.5 4 -19.5
v 3.5 4 -20.5
v 3.5 4 -22.5
f -78/1/2 -77/1/2 -68/1/2
f -77/2/2 -76/2/2 -67/2/2
f -68/1/2 -77/1/2 -67/1/2
f -67/2/2 -76/2/2 -66/2/2
f -76/1/2 -75/1/2 -65/1/2
f -66/2/2 -76/2/2 -65/2/2
f -75/2/2 -74/2/2 -64/2/2
f -65/1/2 -75/1/2 -64/1/2
f -74/3/2 -73/3/2 -63/3/2
f -64/2/2 -74/2/2 -63/2/2
f -73/2/2 -72/2/2 -62/2/2
f -63/3/2 -73/3/2 -62/3/2
f -72/1/2 -71/1/2 -61/1/2
f -71/3/2 -70/3/2 -61/3/2
f -70/1/2 -69/1/2 -60/1/2
f -61/3/2 -70/3/2 -60/3/2
f -60/1/2 -69/1/2 -59/1/2
f -59/1/2 -69/1/2 -58/1/2
f -78/1/2 -68/1/2 -57/1/2
f -57/1/2 -68/1/2 -56/1/2
f -56/1/2 -68/1/2 -55/1/2
f -55/1/2 -68/1/2 -54/1/2
f -68/2/2 -67/2/2 -53/2/2
f -54/1/2 -68/1/2 -53/1/2
f -53/2/2 -67/2/2 -52/2/2
f -52/2/2 -67/2/2 -51/2/2
f -67/1/2 -66/1/2 -50/1/2
f -51/2/2 -67/2/2 -50/2/2
f -66/2/2 -65/2/2 -49/2/2
f -50/1/2 -66/1/2 -49/1/2
f -65/2/2 -64/2/2 -49/2/2
f -64/2/2 -63/2/2 -49/2/2
f -63/2/2 -62/2/2 -49/2/2
f -49/2/2 -62/2/2 -48/2/2
f -48/2/2 -62/2/2 -47/2/2
f -62/2/2 -72/2/2 -46/2/2
f -47/2/2 -62/2/2 -46/2/2
f -72/1/2 -61/1/2 -45/1/2
f -46/2/2 -72/2/2 -45/2/2
f -61/1/2 -60/1/2 -45/1/2
f -60/1/2 -59/1/2 -45/1/2
f -45/1/2 -59/1/2 -44/1/2
f -44/1/2 -59/1/2 -43/1/2
f -43/1/2 -59/1/2 -42/1/2
f -42/1/2 -59/1/2 -41/1/2
f -59/3/2 -58/3/2 -40/3/2
f -41/1/2 -59/1/2 -40/1/2
f -40/3/2 -58/3/2 -39/3/2
f -39/3/2 -58/3/2 -38/3/2
f -78/1/2 -57/1/2 -37/1/2
f -57/3/2 -56/3/2 -36/3/2
f -37/1/2 -57/1/2 -36/1/2
f -56/1/2 -55/1/2 -35/1/2
f -36/3/2 -56/3/2 -35/3/2
f -55/3/2 -54/3/2 -34/3/2
f -35/1/2 -55/1/2 -34/1/2
f -54/1/2 -53/1/2 -33/1/2
f -34/3/2 -54/3/2 -33/3/2
f -53/3/2 -52/3/2 -32/3/2
f -33/1/2 -53/1/2 -32/1/2
f -52/1/2 -51/1/2 -31/1/2
f -32/3/2 -52/3/2 -31/3/2
f -51/3/2 -50/3/2 -30/3/2
f -31/1/2 -51/1/2 -30/1/2
f -30/3/2 -50/3/2 -29/3/2
f -50/2/2 -49/2/2 -28/2/2
f -29/3/2 -50/3/2 -28/3/2
f -28/2/2 -49/2/2 -27/2/2
f -49/3/2 -48/3/2 -26/3/2
f -27/2/2 -49/2/2 -26/2/2
f -47/3/2 -46/3/2 -25/3/2
f -46/1/2 -45/1/2 -25/1/2
f -45/3/2 -44/3/2 -24/3/2
f -25/1/2 -45/1/2 -24/1/2
f -44/1/2 -43/1/2 -23/1/2
f -24/3/2 -44/3/2 -23/3/2
f -23/1/2 -43/1/2 -22/1/2
f -43/3/2 -42/3/2 -21/3/2
f -22/1/2 -43/1/2 -21/1/2
f -42/1/2 -41/1/2 -20/1/2
f -21/3/2 -42/3/2 -20/3/2
f -41/3/2 -40/3/2 -19/3/2
f -20/1/2 -41/1/2 -19/1/2
f -40/3/2 -39/3/2 -19/3/2
f -19/3/2 -39/3/2 -18/3/2
f -39/1/2 -38/1/2 -17/1/2
f -18/3/2 -39/3/2 -17/3/2
f -17/1/2 -38/1/2 -16/1/2
f -33/3/2 -32/3/2 -15/3/2
f -34/3/2 -33/3/2 -15/3/2
f -35/3/2 -34/3/2 -15/3/2
f -37/3/2 -36/3/2 -15/3/2
f -36/3/2 -35/3/2 -15/3/2
f -32/1/2 -31/1/2 -14/1/2
f -15/3/2 -32/3/2 -14/3/2
f -31/3/2 -30/3/2 -13/3/2
f -14/1/2 -31/1/2 -13/1/2
f -30/1/2 -29/1/2 -12/1/2
f -13/3/2 -30/3/2 -12/3/2
f -29/2/2 -28/2/2 -11/2/2
f -12/1/2 -29/1/2 -11/1/2
f -28/2/2 -27/2/2 -11/2/2
f -27/3/2 -26/3/2 -10/3/2
f -11/2/2 -27/2/2 -10/2/2
f -26/3/2 -48/3/2 -9/3/2
f -10/3/2 -26/3/2 -9/3/2
f -48/1/2 -47/1/2 -9/1/2
f -47/3/2 -25/3/2 -8/3/2
f -9/1/2 -47/1/2 -8/1/2
f -25/3/2 -24/3/2 -8/3/2
f -24/3/2 -23/3/2 -8/3/2
f -23/2/2 -22/2/2 -7/2/2
f -8/3/2 -23/3/2 -7/3/2
f -22/3/2 -21/3/2 -6/3/2
f -7/2/2 -22/2/2 -6/2/2
f -21/2/2 -20/2/2 -5/2/2
f -6/3/2 -21/3/2 -5/3/2
f -20/3/2 -19/3/2 -4/3/2
f -5/2/2 -20/2/2 -4/2/2
f -19/2/2 -18/2/2 -3/2/2
f -4/3/2 -19/3/2 -3/3/2
f -17/3/2 -16/3/2 -2/3/2
f -3/2/2 -18/2/2 -2/2/2
f -18/3/2 -17/3/2 -2/3/2
f -2/3/2 -16/3/2 -1/3/2
v -3.5 0 22.5
v -3.5 1 22.5
v -3.5 3 22.5
v -3.5 4 22.5
v -1.5 0 22.5
v -1.5 1 22.5
v -1.5 2 22.5
v -1.5 3 22.5
v -0.5 3 22.5
v -0.5 4 22.5
v 0.5 1 22.5
v 0.5 2 22.5
v 1.5 1 22.5
v 1.5 3 22.5
v 1.5 4 22.5
v 3.5 0 22.5
v 3.5 3 22.5
v 3.5 4 22.5
f -14/3/3 -17/3/3 -18/3/3
f -13/1/3 -16/1/3 -17/1/3
f -13/3/3 -17/3/3 -14/3/3
f -12/1/3 -16/1/3 -13/1/3
f -11/3/3 -15/3/3 -16/3/3
f -11/1/3 -16/1/3 -12/1/3
f -10/3/3 -11/3/3 -12/3/3
f -10/3/3 -15/3/3 -11/3/3
f -9/3/3 -15/3/3 -10/3/3
f -8/1/3 -12/1/3 -13/1/3
f -8/1/3 -13/1/3 -14/1/3
f -7/3/3 -10/3/3 -12/3/3
f -7/1/3 -12/1/3 -8/1/3
f -6/1/3 -8/1/3 -14/1/3
f -6/3/3 -7/3/3 -8/3/3
f -5/1/3 -9/1/3 -10/1/3
f -5/3/3 -7/3/3 -6/3/3
f -5/3/3 -10/3/3 -7/3/3
f -4/1/3 -9/1/3 -5/1/3
f -3/1/3 -6/1/3 -14/1/3
f -3/1/3 -5/1/3 -6/1/3
f -2/3/3 -4/3/3 -5/3/3
f -2/1/3 -5/1/3 -3/1/3
f -1/3/3 -4/3/3 -2/3/3
v -3.5 0 -22.5
v -3.5 3 -22.5
v -3.5 4 -22.5
v -1.5 3 -22.5
v -1.5 4 -22.5
v -0.5 3 -22.5
v -0.5 4 -22.5
v 0.5 0 -22.5
v 0.5 2 -22.5
v 0.5 3 -22.5
v 0.5 4 -22.5
v 1.5 0 -22.5
v 1.5 1 -22.5
v 1.5 3 -22.5
v 1.5 4 -22.5
v 3.5 0 -22.5
v 3.5 1 -22.5
v 3.5 2 -22.5
v 3.5 3 -22.5
v 3.5 4 -22.5
f -20/1/4 -19/1/4 -17/1/4
f -19/3/4 -18/3/4 -17/3/4
f -17/3/4 -18/3/4 -16/3/4
f -20/1/4 -17/1/4 -15/1/4
f -17/1/4 -16/1/4 -15/1/4
f -15/1/4 -16/1/4 -14/1/4
f -20/1/4 -15/1/4 -13/1/4
f -13/1/4 -15/1/4 -12/1/4
f -15/2/4 -14/2/4 -11/2/4
f -12/1/4 -15/1/4 -11/1/4
f -11/2/4 -14/2/4 -10/2/4
f -13/3/4 -12/3/4 -9/3/4
f -9/3/4 -12/3/4 -8/3/4
f -12/1/4 -11/1/4 -7/1/4
f -11/1/4 -10/1/4 -7/1/4
f -7/1/4 -10/1/4 -6/1/4
f -9/1/4 -8/1/4 -5/1/4
f -8/3/4 -12/3/4 -4/3/4
f -5/1/4 -8/1/4 -4/1/4
f -12/1/4 -7/1/4 -3/1/4
f -4/3/4 -12/3/4 -3/3/4
f -7/3/4 -6/3/4 -2/3/4
f -3/1/4 -7/1/4 -2/1/4
f -2/3/4 -6/3/4 -1/3/4
v -3.5 0 22.5
v -1.5 0 22.5
v 3.5 0 22.5
v -3.5 0 21.5
v -1.5 0 21.5
v -3.5 0 15.5
v -2.5 0 15.5
v -3.5 0 12.5
v -2.5 0 12.5
v 2.5 0 7.5
v 3.5 0 7.5
v 2.5 0 3.5
v 3.5 0 3.5
v -3.5 0 2.5
v -2.5 0 2.5
v 2.5 0 2.5
v 3.5 0 2.5
v 2.5 0 1.5
v 3.5 0 1.5
v 2.5 0 0.5
v 3.5 0 0.5
v -3.5 0 -0.5
v -2.5 0 -0.5
v 2.5 0 -1.5
v 3.5 0 -1.5
v 2.5 0 -6.5
v 3.5 0 -6.5
v 2.5 0 -9.5
v 3.5 0 -9.5
v -3.5 0 -12.5
v -2.5 0 -12.5
v -3.5 0 -13.5
v -2.5 0 -13.5
v -3.5 0 -14.5
v -2.5 0 -14.5
v -3.5 0 -16.5
v -2.5 0 -16.5
v -3.5 0 -17.5
v -2.5 0 -17.5
v 0.5 0 -21.5
v 1.5 0 -21.5
v -3.5 0 -22.5
v 0.5 0 -22.5
v 1.5 0 -22.5
v 3.5 0 -22.5
f -42/3/5 -44/3/5 -45/3/5
f -41/1/5 -43/1/5 -44/1/5
f -41/3/5 -44/3/5 -42/3/5
f -40/1/5 -41/1/5 -42/1/5
f -39/1/5 -41/1/5 -40/1/5
f -38/3/5 -39/3/5 -40/3/5
f -37/1/5 -41/1/5 -39/1/5
f -37/3/5 -39/3/5 -38/3/5
f -36/1/5 -43/1/5 -41/1/5
f -36/1/5 -41/1/5 -37/1/5
f -36/1/5 -37/1/5 -38/1/5
f -35/1/5 -43/1/5 -36/1/5
f -34/1/5 -36/1/5 -38/1/5
f -34/2/5 -35/2/5 -36/2/5
f -33/2/5 -35/2/5 -34/2/5
f -32/1/5 -34/1/5 -38/1/5
f -32/1/5 -33/1/5 -34/1/5
f -31/1/5 -33/1/5 -32/1/5
f -30/1/5 -33/1/5 -31/1/5
f -29/1/5 -33/1/5 -30/1/5
f -28/1/5 -30/1/5 -31/1/5
f -28/2/5 -29/2/5 -30/2/5
f -27/2/5 -29/2/5 -28/2/5
f -26/1/5 -28/1/5 -31/1/5
f -26/3/5 -27/3/5 -28/3/5
f -25/3/5 -27/3/5 -26/3/5
f -24/3/5 -31/3/5 -32/3/5
f -23/1/5 -26/1/5 -31/1/5
f -23/3/5 -31/3/5 -24/3/5
f -22/2/5 -25/2/5 -26/2/5
f -22/1/5 -26/1/5 -23/1/5
f -22/1/5 -23/1/5 -24/1/5
f -21/2/5 -25/2/5 -22/2/5
f -20/1/5 -22/1/5 -24/1/5
f -20/1/5 -21/1/5 -22/1/5
f -19/1/5 -21/1/5 -20/1/5
f -18/1/5 -20/1/5 -24/1/5
f -18/3/5 -19/3/5 -20/3/5
f -17/3/5 -19/3/5 -18/3/5
f -16/1/5 -18/1/5 -24/1/5
f -16/1/5 -17/1/5 -18/1/5
f -15/1/5 -17/1/5 -16/1/5
f -14/3/5 -15/3/5 -16/3/5
f -13/1/5 -17/1/5 -15/1/5
f -13/3/5 -15/3/5 -14/3/5
f -12/1/5 -13/1/5 -14/1/5
f -11/1/5 -17/1/5 -13/1/5
f -11/1/5 -13/1/5 -12/1/5
f -10/3/5 -11/3/5 -12/3/5
f -9/1/5 -17/1/5 -11/1/5
f -9/3/5 -11/3/5 -10/3/5
f -8/2/5 -9/2/5 -10/2/5
f -7/1/5 -17/1/5 -9/1/5
f -7/2/5 -9/2/5 -8/2/5
f -6/1/5 -7/1/5 -8/1/5
f -6/1/5 -17/1/5 -7/1/5
f -5/1/5 -17/1/5 -6/1/5
f -4/1/5 -6/1/5 -8/1/5
f -3/3/5 -5/3/5 -6/3/5
f -3/1/5 -6/1/5 -4/1/5
f -2/1/5 -17/1/5 -5/1/5
f -2/3/5 -5/3/5 -3/3/5
f -1/1/5 -17/1/5 -2/1/5
v -3.5 4 22.5
v -0.5 4 22.5
v 1.5 4 22.5
v 3.5 4 22.5
v -1.5 4 21.5
v -0.5 4 21.5
v -2.5 4 20.5
v -1.5 4 20.5
v 1.5 4 20.5
v 2.5 4 20.5
v -3.5 4 17.5
v -2.5 4 17.5
v -2.5 4 16.5
v -1.5 4 16.5
v -3.5 4 15.5
v -1.5 4 15.5
v 1.5 4 15.5
v 2.5 4 15.5
v -2.5 4 14.5
v -1.5 4 14.5
v 1.5 4 14.5
v 2.5 4 14.5
v -2.5 4 13.5
v -1.5 4 13.5
v 1.5 4 13.5
v 2.5 4 13.5
v -3.5 4 12.5
v -2.5 4 12.5
v -0.5 4 12.5
v 0.5 4 12.5
v -2.5 4 11.5
v -1.5 4 11.5
v -0.5 4 11.5
v 0.5 4 11.5
v 1.5 4 11.5
v 3.5 4 11.5
v -1.5 4 10.5
v -0.5 4 10.5
v 0.5 4 10.5
v 2.5 4 10.5
v 3.5 4 10.5
v -1.5 4 9.5
v -0.5 4 9.5
v 0.5 4 9.5
v 1.5 4 9.5
v 2.5 4 9.5
v 3.5 4 9.5
v -3.5 4 8.5
v -2.5 4 8.5
v 2.5 4 8.5
v 3.5 4 8.5
v -2.5 4 7.5
v -1.5 4 7.5
v 1.5 4 7.5
v 2.5 4 7.5
v 2.5 4 6.5
v 3.5 4 6.5
v -2.5 4 5.5
v -1.5 4 5.5
v 1.5 4 5.5
v 2.5 4 5.5
v -3.5 4 2.5
v -2.5 4 2.5
v 2.5 4 2.5
v 3.5 4 2.5
v -3.5 4 1.5
v -2.5 4 1.5
v 2.5 4 1.5
v 3.5 4 1.5
v -0.5 4 0.5
v 0.5 4 0.5
v -3.5 4 -1.5
v -2.5 4 -1.5
v -2.5 4 -3.5
v -1.5 4 -3.5
v -3.5 4 -4.5
v -2.5 4 -4.5
v -1.5 4 -4.5
v -0.5 4 -4.5
v 0.5 4 -4.5
v 1.5 4 -4.5
v 2.5 4 -4.5
v 3.5 4 -4.5
v -2.5 4 -5.5
v -1.5 4 -5.5
v -0.5 4 -5.5
v 0.5 4 -5.5
v -1.5 4 -6.5
v -0.5 4 -6.5
v 0.5 4 -6.5
v 1.5 4 -6.5
v 2.5 4 -6.5
v 1.5 4 -7.5
v 2.5 4 -7.5
v -0.5 4 -8.5
v 0.5 4 -8.5
v 2.5 4 -8.5
v 3.5 4 -8.5
v 0.5 4 -9.5
v 1.5 4 -9.5
v -3.5 4 -10.5
v -2.5 4 -10.5
v 1.5 4 -10.5
v 2.5 4 -10.5
v 3.5 4 -10.5
v -2.5 4 -11.5
v -1.5 4 -11.5
v 2.5 4 -11.5
v 3.5 4 -11.5
v -2.5 4 -12.5
v -1.5 4 -12.5
v -2.5 4 -13.5
v -1.5 4 -13.5
v -0.5 4 -13.5
v 0.5 4 -13.5
v 1.5 4 -13.5
v 2.5 4 -13.5
v -3.5 4 -14.5
v -2.5 4 -14.5
v -1.5 4 -14.5
v -0.5 4 -14.5
v 0.5 4 -14.5
v 1.5 4 -14.5
v 2.5 4 -14.5
v -3.5 4 -16.5
v -2.5 4 -16.5
v -1.5 4 -16.5
v -0.5 4 -16.5
v 0.5 4 -16.5
v -3.5 4 -17.5
v -2.5 4 -17.5
v -1.5 4 -17.5
v -0.5 4 -17.5
v 0.5 4 -17.5
v -2.5 4 -18.5
v -0.5 4 -18.5
v 1.5 4 -18.5
v 2.5 4 -18.5
v -2.5 4 -19.5
v -1.5 4 -19.5
v 0.5 4 -19.5
v 1.5 4 -19.5
v 2.5 4 -19.5
v 3.5 4 -19.5
v -2.5 4 -20.5
v -1.5 4 -20.5
v -0.5 4 -20.5
v 0.5 4 -20.5
v 1.5 4 -20.5
v 2.5 4 -20.5
v 3.5 4 -20.5
v -2.5 4 -21.5
v -1.5 4 -21.5
v -0.5 4 -21.5
v 0.5 4 -21.5
v 1.5 4 -21.5
v 2.5 4 -21.5
v -3.5 4 -22.5
v -1.5 4 -22.5
v -0.5 4 -22.5
v 0.5 4 -22.5
v 1.5 4 -22.5
v 3.5 4 -22.5
f -163/3/6 -162/3/6 -159/3/6
f -162/1/6 -161/1/6 -158/1/6
f -159/3/6 -162/3/6 -158/3/6
f -163/3/6 -159/3/6 -157/3/6
f -159/1/6 -158/1/6 -156/1/6
f -157/3/6 -159/3/6 -156/3/6
f -161/3/6 -160/3/6 -155/3/6
f -156/1/6 -158/1/6 -155/1/6
f -158/1/6 -161/1/6 -155/1/6
f -155/3/6 -160/3/6 -154/3/6
f -163/3/6 -157/3/6 -153/3/6
f -157/1/6 -156/1/6 -152/1/6
f -153/3/6 -157/3/6 -152/3/6
f -156/1/6 -155/1/6 -152/1/6
f -155/1/6 -154/1/6 -152/1/6
f -153/2/6 -152/2/6 -151/2/6
f -152/1/6 -154/1/6 -151/1/6
f -151/1/6 -154/1/6 -150/1/6
f -153/2/6 -151/2/6 -149/2/6
f -151/2/6 -150/2/6 -149/2/6
f -150/1/6 -154/1/6 -148/1/6
f -149/2/6 -150/2/6 -148/2/6
f -148/1/6 -154/1/6 -147/1/6
f -154/3/6 -160/3/6 -146/3/6
f -147/1/6 -154/1/6 -146/1/6
f -149/3/6 -148/3/6 -145/3/6
f -148/2/6 -147/2/6 -144/2/6
f -145/3/6 -148/3/6 -144/3/6
f -147/3/6 -146/3/6 -143/3/6
f -144/2/6 -147/2/6 -143/2/6
f -146/3/6 -160/3/6 -142/3/6
f -143/3/6 -146/3/6 -142/3/6
f -149/3/6 -145/3/6 -141/3/6
f -145/1/6 -144/1/6 -141/1/6
f -144/2/6 -143/2/6 -140/2/6
f -141/1/6 -144/1/6 -140/1/6
f -143/1/6 -142/1/6 -139/1/6
f -140/2/6 -143/2/6 -139/2/6
f -142/3/6 -160/3/6 -138/3/6
f -139/1/6 -142/1/6 -138/1/6
f -149/3/6 -141/3/6 -137/3/6
f -140/2/6 -139/2/6 -136/2/6
f -137/3/6 -141/3/6 -136/3/6
f -141/2/6 -140/2/6 -136/2/6
f -136/2/6 -139/2/6 -135/2/6
f -135/2/6 -139/2/6 -134/2/6
f -137/2/6 -136/2/6 -133/2/6
f -136/2/6 -135/2/6 -133/2/6
f -133/2/6 -135/2/6 -132/2/6
f -135/3/6 -134/3/6 -131/3/6
f -132/2/6 -135/2/6 -131/2/6
f -134/2/6 -139/2/6 -130/2/6
f -131/3/6 -134/3/6 -130/3/6
f -139/3/6 -138/3/6 -129/3/6
f -130/2/6 -139/2/6 -129/2/6
f -138/3/6 -160/3/6 -128/3/6
f -129/3/6 -138/3/6 -128/3/6
f -132/3/6 -131/3/6 -127/3/6
f -133/1/6 -132/1/6 -127/1/6
f -130/2/6 -129/2/6 -126/2/6
f -127/3/6 -131/3/6 -126/3/6
f -131/2/6 -130/2/6 -126/2/6
f -126/2/6 -129/2/6 -125/2/6
f -129/1/6 -128/1/6 -124/1/6
f -124/1/6 -128/1/6 -123/1/6
f -133/1/6 -127/1/6 -122/1/6
f -127/2/6 -126/2/6 -122/2/6
f -126/1/6 -125/1/6 -121/1/6
f -122/2/6 -126/2/6 -121/2/6
f -125/2/6 -129/2/6 -120/2/6
f -121/1/6 -125/1/6 -120/1/6
f -129/1/6 -124/1/6 -119/1/6
f -120/2/6 -129/2/6 -119/2/6
f -124/3/6 -123/3/6 -118/3/6
f -119/1/6 -124/1/6 -118/1/6
f -118/3/6 -123/3/6 -117/3/6
f -137/2/6 -133/2/6 -116/2/6
f -122/1/6 -121/1/6 -115/1/6
f -116/2/6 -133/2/6 -115/2/6
f -120/1/6 -119/1/6 -115/1/6
f -118/1/6 -117/1/6 -115/1/6
f -119/1/6 -118/1/6 -115/1/6
f -121/1/6 -120/1/6 -115/1/6
f -133/1/6 -122/1/6 -115/1/6
f -115/1/6 -117/1/6 -114/1/6
f -114/1/6 -117/1/6 -113/1/6
f -116/3/6 -115/3/6 -112/3/6
f -115/1/6 -114/1/6 -112/1/6
f -112/1/6 -114/1/6 -111/1/6
f -111/1/6 -114/1/6 -110/1/6
f -114/2/6 -113/2/6 -109/2/6
f -110/1/6 -114/1/6 -109/1/6
f -110/3/6 -109/3/6 -108/3/6
f -109/2/6 -113/2/6 -108/2/6
f -108/2/6 -113/2/6 -107/2/6
f -116/3/6 -112/3/6 -106/3/6
f -112/3/6 -111/3/6 -106/3/6
f -111/1/6 -110/1/6 -105/1/6
f -106/3/6 -111/3/6 -105/3/6
f -108/3/6 -107/3/6 -104/3/6
f -105/1/6 -110/1/6 -104/1/6
f -110/3/6 -108/3/6 -104/3/6
f -104/3/6 -107/3/6 -103/3/6
f -116/3/6 -106/3/6 -102/3/6
f -106/1/6 -105/1/6 -101/1/6
f -102/3/6 -106/3/6 -101/3/6
f -105/1/6 -104/1/6 -101/1/6
f -104/1/6 -103/1/6 -101/1/6
f -103/3/6 -107/3/6 -100/3/6
f -101/1/6 -103/1/6 -100/1/6
f -100/3/6 -107/3/6 -99/3/6
f -102/1/6 -101/1/6 -98/1/6
f -101/1/6 -100/1/6 -98/1/6
f -100/1/6 -99/1/6 -98/1/6
f -98/1/6 -99/1/6 -97/1/6
f -97/1/6 -99/1/6 -96/1/6
f -96/1/6 -99/1/6 -95/1/6
f -97/1/6 -96/1/6 -94/1/6
f -94/1/6 -96/1/6 -93/1/6
f -98/3/6 -97/3/6 -92/3/6
f -97/1/6 -94/1/6 -91/1/6
f -92/3/6 -97/3/6 -91/3/6
f -92/2/6 -91/2/6 -90/2/6
f -91/1/6 -94/1/6 -90/1/6
f -90/1/6 -94/1/6 -89/1/6
f -92/2/6 -90/2/6 -88/2/6
f -90/2/6 -89/2/6 -88/2/6
f -88/2/6 -89/2/6 -87/2/6
f -89/1/6 -94/1/6 -86/1/6
f -87/2/6 -89/2/6 -86/2/6
f -94/3/6 -93/3/6 -85/3/6
f -86/1/6 -94/1/6 -85/1/6
f -93/1/6 -96/1/6 -84/1/6
f -85/3/6 -93/3/6 -84/3/6
f -84/1/6 -96/1/6 -83/1/6
f -96/3/6 -95/3/6 -82/3/6
f -83/1/6 -96/1/6 -82/1/6
f -82/3/6 -95/3/6 -81/3/6
f -86/2/6 -85/2/6 -80/2/6
f -87/2/6 -86/2/6 -80/2/6
f -88/3/6 -87/3/6 -80/3/6
f -80/2/6 -85/2/6 -79/2/6
f -84/1/6 -83/1/6 -78/1/6
f -79/2/6 -85/2/6 -78/2/6
f -85/1/6 -84/1/6 -78/1/6
f -78/1/6 -83/1/6 -77/1/6
f -80/1/6 -79/1/6 -76/1/6
f -79/2/6 -78/2/6 -76/2/6
f -78/2/6 -77/2/6 -76/2/6
f -76/2/6 -77/2/6 -75/2/6
f -77/1/6 -83/1/6 -74/1/6
f -75/2/6 -77/2/6 -74/2/6
f -82/2/6 -81/2/6 -73/2/6
f -74/1/6 -83/1/6 -73/1/6
f -83/2/6 -82/2/6 -73/2/6
f -73/2/6 -81/2/6 -72/2/6
f -75/2/6 -74/2/6 -71/2/6
f -74/2/6 -73/2/6 -71/2/6
f -73/1/6 -72/1/6 -71/1/6
f -72/2/6 -81/2/6 -70/2/6
f -71/1/6 -72/1/6 -70/1/6
f -76/1/6 -75/1/6 -69/1/6
f -75/2/6 -71/2/6 -69/2/6
f -71/2/6 -70/2/6 -69/2/6
f -69/2/6 -70/2/6 -68/2/6
f -70/2/6 -81/2/6 -67/2/6
f -68/2/6 -70/2/6 -67/2/6
f -67/2/6 -81/2/6 -66/2/6
f -69/1/6 -68/1/6 -65/1/6
f -68/2/6 -67/2/6 -65/2/6
f -65/2/6 -67/2/6 -64/2/6
f -88/3/6 -80/3/6 -63/3/6
f -80/1/6 -76/1/6 -62/1/6
f -63/3/6 -80/3/6 -62/3/6
f -76/1/6 -69/1/6 -62/1/6
f -65/1/6 -64/1/6 -62/1/6
f -69/1/6 -65/1/6 -62/1/6
f -64/2/6 -67/2/6 -61/2/6
f -62/1/6 -64/1/6 -61/1/6
f -67/3/6 -66/3/6 -60/3/6
f -61/2/6 -67/2/6 -60/2/6
f -60/3/6 -66/3/6 -59/3/6
f -63/2/6 -62/2/6 -58/2/6
f -62/1/6 -61/1/6 -58/1/6
f -61/1/6 -60/1/6 -58/1/6
f -58/1/6 -60/1/6 -57/1/6
f -60/2/6 -59/2/6 -56/2/6
f -57/1/6 -60/1/6 -56/1/6
f -56/2/6 -59/2/6 -55/2/6
f -58/2/6 -57/2/6 -54/2/6
f -63/2/6 -58/2/6 -54/2/6
f -57/1/6 -56/1/6 -53/1/6
f -54/2/6 -57/2/6 -53/2/6
f -63/2/6 -54/2/6 -52/2/6
f -54/1/6 -53/1/6 -52/1/6
f -53/1/6 -56/1/6 -51/1/6
f -52/1/6 -53/1/6 -51/1/6
f -51/1/6 -56/1/6 -50/1/6
f -50/1/6 -56/1/6 -49/1/6
f -49/1/6 -56/1/6 -48/1/6
f -56/3/6 -55/3/6 -47/3/6
f -48/1/6 -56/1/6 -47/1/6
f -63/2/6 -52/2/6 -46/2/6
f -52/3/6 -51/3/6 -45/3/6
f -46/2/6 -52/2/6 -45/2/6
f -51/2/6 -50/2/6 -44/2/6
f -45/3/6 -51/3/6 -44/3/6
f -50/1/6 -49/1/6 -43/1/6
f -44/2/6 -50/2/6 -43/2/6
f -49/2/6 -48/2/6 -42/2/6
f -43/1/6 -49/1/6 -42/1/6
f -48/3/6 -47/3/6 -41/3/6
f -42/2/6 -48/2/6 -41/2/6
f -47/3/6 -55/3/6 -40/3/6
f -41/3/6 -47/3/6 -40/3/6
f -46/3/6 -45/3/6 -39/3/6
f -44/2/6 -43/2/6 -38/2/6
f -39/3/6 -45/3/6 -38/3/6
f -42/2/6 -41/2/6 -38/2/6
f -45/2/6 -44/2/6 -38/2/6
f -43/2/6 -42/2/6 -38/2/6
f -38/2/6 -41/2/6 -37/2/6
f -37/2/6 -41/2/6 -36/2/6
f -36/2/6 -41/2/6 -35/2/6
f -39/2/6 -38/2/6 -34/2/6
f -38/1/6 -37/1/6 -33/1/6
f -34/2/6 -38/2/6 -33/2/6
f -37/2/6 -36/2/6 -32/2/6
f -33/1/6 -37/1/6 -32/1/6
f -36/1/6 -35/1/6 -31/1/6
f -32/2/6 -36/2/6 -31/2/6
f -35/2/6 -41/2/6 -30/2/6
f -31/1/6 -35/1/6 -30/1/6
f -32/2/6 -31/2/6 -29/2/6
f -34/3/6 -33/3/6 -29/3/6
f -31/2/6 -30/2/6 -29/2/6
f -33/2/6 -32/2/6 -29/2/6
f -29/2/6 -30/2/6 -28/2/6
f -41/1/6 -40/1/6 -27/1/6
f -28/2/6 -30/2/6 -27/2/6
f -30/2/6 -41/2/6 -27/2/6
f -40/3/6 -55/3/6 -26/3/6
f -27/1/6 -40/1/6 -26/1/6
f -29/1/6 -28/1/6 -25/1/6
f -34/3/6 -29/3/6 -25/3/6
f -25/1/6 -28/1/6 -24/1/6
f -28/2/6 -27/2/6 -23/2/6
f -27/2/6 -26/2/6 -23/2/6
f -23/2/6 -26/2/6 -22/2/6
f -26/3/6 -55/3/6 -21/3/6
f -22/2/6 -26/2/6 -21/2/6
f -21/3/6 -55/3/6 -20/3/6
f -25/3/6 -24/3/6 -19/3/6
f -34/3/6 -25/3/6 -19/3/6
f -24/1/6 -28/1/6 -18/1/6
f -19/3/6 -24/3/6 -18/3/6
f -28/2/6 -23/2/6 -17/2/6
f -18/1/6 -28/1/6 -17/1/6
f -23/1/6 -22/1/6 -16/1/6
f -17/2/6 -23/2/6 -16/2/6
f -22/3/6 -21/3/6 -15/3/6
f -16/1/6 -22/1/6 -15/1/6
f -21/2/6 -20/2/6 -14/2/6
f -15/3/6 -21/3/6 -14/3/6
f -14/2/6 -20/2/6 -13/2/6
f -18/2/6 -17/2/6 -12/2/6
f -34/3/6 -19/3/6 -12/3/6
f -16/2/6 -15/2/6 -12/2/6
f -15/2/6 -14/2/6 -12/2/6
f -17/2/6 -16/2/6 -12/2/6
f -19/2/6 -18/2/6 -12/2/6
f -12/2/6 -14/2/6 -11/2/6
f -11/2/6 -14/2/6 -10/2/6
f -10/2/6 -14/2/6 -9/2/6
f -9/2/6 -14/2/6 -8/2/6
f -14/3/6 -13/3/6 -7/3/6
f -8/2/6 -14/2/6 -7/2/6
f -34/3/6 -12/3/6 -6/3/6
f -12/3/6 -11/3/6 -6/3/6
f -11/1/6 -10/1/6 -5/1/6
f -6/3/6 -11/3/6 -5/3/6
f -10/2/6 -9/2/6 -4/2/6
f -5/1/6 -10/1/6 -4/1/6
f -9/1/6 -8/1/6 -3/1/6
f -4/2/6 -9/2/6 -3/2/6
f -8/3/6 -7/3/6 -2/3/6
f -3/1/6 -8/1/6 -2/1/6
f -7/3/6 -13/3/6 -1/3/6
f -2/3/6 -7/3/6 -1/3/6
