# MagicaVoxel @ ephtracy

# material
mtllib river-001.mtl
usemtl palette

# normals
vn -1 0 0
vn 1 0 0
vn 0 0 1
vn 0 0 -1
vn 0 -1 0
vn 0 1 0

# texcoords
vt 0.677734 0.5
vt 0.748047 0.5

# verts and faces
v -10.5 0 22.5
v -10.5 0 -22.5
v -10.5 2 22.5
v -10.5 2 -22.5
f -2/2/1 -3/2/1 -4/2/1
f -1/2/1 -3/2/1 -2/2/1
v 10.5 0 22.5
v 10.5 0 -22.5
v 10.5 1 -1.5
v 10.5 1 -2.5
v 10.5 2 22.5
v 10.5 2 -1.5
v 10.5 2 -2.5
v 10.5 2 -22.5
f -8/2/2 -7/2/2 -6/2/2
f -6/2/2 -7/2/2 -5/2/2
f -8/2/2 -6/2/2 -4/2/2
f -6/1/2 -5/1/2 -3/1/2
f -4/2/2 -6/2/2 -3/2/2
f -5/2/2 -7/2/2 -2/2/2
f -3/1/2 -5/1/2 -2/1/2
f -2/2/2 -7/2/2 -1/2/2
v -10.5 0 22.5
v -10.5 2 22.5
v 10.5 0 22.5
v 10.5 2 22.5
f -2/2/3 -3/2/3 -4/2/3
f -1/2/3 -3/2/3 -2/2/3
v -10.5 0 -22.5
v -10.5 2 -22.5
v 10.5 0 -22.5
v 10.5 2 -22.5
f -4/2/4 -3/2/4 -2/2/4
f -2/2/4 -3/2/4 -1/2/4
v -10.5 0 22.5
v 10.5 0 22.5
v -10.5 0 -22.5
v 10.5 0 -22.5
f -2/2/5 -3/2/5 -4/2/5
f -1/2/5 -3/2/5 -2/2/5
v -10.5 2 22.5
v 10.5 2 22.5
v 2.5 2 19.5
v 4.5 2 19.5
v -0.5 2 18.5
v 2.5 2 18.5
v 4.5 2 18.5
v -0.5 2 17.5
v 2.5 2 17.5
v -4.5 2 11.5
v 6.5 2 11.5
v -7.5 2 10.5
v -4.5 2 10.5
v 5.5 2 10.5
v 6.5 2 10.5
v 7.5 2 10.5
v -7.5 2 9.5
v -4.5 2 9.5
v 5.5 2 9.5
v 7.5 2 9.5
v -4.5 2 0.5
v -1.5 2 0.5
v -7.5 2 -0.5
v -4.5 2 -0.5
v -3.5 2 -0.5
v -1.5 2 -0.5
v 7.5 2 -0.5
v 8.5 2 -0.5
v -7.5 2 -1.5
v -3.5 2 -1.5
v 7.5 2 -1.5
v 8.5 2 -1.5
v 10.5 2 -1.5
v 8.5 2 -2.5
v 10.5 2 -2.5
v -1.5 2 -12.5
v 1.5 2 -12.5
v -4.5 2 -13.5
v -1.5 2 -13.5
v -0.5 2 -13.5
v 0.5 2 -13.5
v 1.5 2 -13.5
v 4.5 2 -13.5
v -4.5 2 -14.5
v -0.5 2 -14.5
v 0.5 2 -14.5
v 3.5 2 -14.5
v 4.5 2 -14.5
v 5.5 2 -14.5
v 3.5 2 -15.5
v 5.5 2 -15.5
v -3.5 2 -18.5
v -1.5 2 -18.5
v -8.5 2 -19.5
v -3.5 2 -19.5
v -1.5 2 -19.5
v -7.5 2 -20.5
v -3.5 2 -20.5
v -8.5 2 -21.5
v -7.5 2 -21.5
v -10.5 2 -22.5
v 10.5 2 -22.5
f -62/2/6 -61/2/6 -60/2/6
f -60/2/6 -61/2/6 -59/2/6
f -62/2/6 -60/2/6 -58/2/6
f -60/1/6 -59/1/6 -57/1/6
f -58/2/6 -60/2/6 -57/2/6
f -59/2/6 -61/2/6 -56/2/6
f -57/1/6 -59/1/6 -56/1/6
f -58/1/6 -57/1/6 -55/1/6
f -62/2/6 -58/2/6 -55/2/6
f -57/2/6 -56/2/6 -54/2/6
f -55/1/6 -57/1/6 -54/1/6
f -62/2/6 -55/2/6 -53/2/6
f -55/2/6 -54/2/6 -53/2/6
f -56/2/6 -61/2/6 -52/2/6
f -53/2/6 -54/2/6 -52/2/6
f -54/2/6 -56/2/6 -52/2/6
f -62/2/6 -53/2/6 -51/2/6
f -53/1/6 -52/1/6 -50/1/6
f -51/2/6 -53/2/6 -50/2/6
f -50/1/6 -52/1/6 -49/1/6
f -52/2/6 -61/2/6 -48/2/6
f -49/1/6 -52/1/6 -48/1/6
f -48/2/6 -61/2/6 -47/2/6
f -62/2/6 -51/2/6 -46/2/6
f -51/1/6 -50/1/6 -46/1/6
f -50/2/6 -49/2/6 -45/2/6
f -46/1/6 -50/1/6 -45/1/6
f -48/1/6 -47/1/6 -44/1/6
f -45/2/6 -49/2/6 -44/2/6
f -49/1/6 -48/1/6 -44/1/6
f -47/2/6 -61/2/6 -43/2/6
f -44/1/6 -47/1/6 -43/1/6
f -45/2/6 -44/2/6 -42/2/6
f -46/2/6 -45/2/6 -42/2/6
f -44/2/6 -43/2/6 -42/2/6
f -42/2/6 -43/2/6 -41/2/6
f -62/2/6 -46/2/6 -40/2/6
f -46/2/6 -42/2/6 -40/2/6
f -42/1/6 -41/1/6 -39/1/6
f -40/2/6 -42/2/6 -39/2/6
f -39/1/6 -41/1/6 -38/1/6
f -41/2/6 -43/2/6 -37/2/6
f -38/1/6 -41/1/6 -37/1/6
f -43/2/6 -61/2/6 -36/2/6
f -37/2/6 -43/2/6 -36/2/6
f -36/2/6 -61/2/6 -35/2/6
f -39/1/6 -38/1/6 -34/1/6
f -62/2/6 -40/2/6 -34/2/6
f -40/1/6 -39/1/6 -34/1/6
f -38/2/6 -37/2/6 -33/2/6
f -34/1/6 -38/1/6 -33/1/6
f -37/2/6 -36/2/6 -33/2/6
f -36/1/6 -35/1/6 -32/1/6
f -33/2/6 -36/2/6 -32/2/6
f -35/2/6 -61/2/6 -31/2/6
f -32/1/6 -35/1/6 -31/1/6
f -31/2/6 -61/2/6 -30/2/6
f -33/2/6 -32/2/6 -29/2/6
f -34/2/6 -33/2/6 -29/2/6
f -31/1/6 -30/1/6 -29/1/6
f -32/2/6 -31/2/6 -29/2/6
f -29/1/6 -30/1/6 -28/1/6
f -34/2/6 -29/2/6 -27/2/6
f -29/2/6 -28/2/6 -27/2/6
f -27/2/6 -28/2/6 -26/2/6
f -34/2/6 -27/2/6 -25/2/6
f -27/1/6 -26/1/6 -24/1/6
f -25/2/6 -27/2/6 -24/2/6
f -24/1/6 -26/1/6 -23/1/6
f -23/1/6 -26/1/6 -22/1/6
f -26/2/6 -28/2/6 -21/2/6
f -22/1/6 -26/1/6 -21/1/6
f -21/2/6 -28/2/6 -20/2/6
f -34/2/6 -25/2/6 -19/2/6
f -25/1/6 -24/1/6 -19/1/6
f -24/1/6 -23/1/6 -19/1/6
f -23/2/6 -22/2/6 -18/2/6
f -19/1/6 -23/1/6 -18/1/6
f -21/1/6 -20/1/6 -17/1/6
f -18/2/6 -22/2/6 -17/2/6
f -22/1/6 -21/1/6 -17/1/6
f -17/1/6 -20/1/6 -16/1/6
f -20/2/6 -28/2/6 -15/2/6
f -16/1/6 -20/1/6 -15/1/6
f -15/2/6 -28/2/6 -14/2/6
f -17/2/6 -16/2/6 -13/2/6
f -19/2/6 -18/2/6 -13/2/6
f -15/1/6 -14/1/6 -13/1/6
f -16/1/6 -15/1/6 -13/1/6
f -18/2/6 -17/2/6 -13/2/6
f -14/2/6 -28/2/6 -12/2/6
f -13/1/6 -14/1/6 -12/1/6
f -19/2/6 -13/2/6 -11/2/6
f -13/2/6 -12/2/6 -11/2/6
f -11/2/6 -12/2/6 -10/2/6
f -62/2/6 -34/2/6 -9/2/6
f -34/2/6 -19/2/6 -9/2/6
f -19/2/6 -11/2/6 -9/2/6
f -11/1/6 -10/1/6 -8/1/6
f -9/2/6 -11/2/6 -8/2/6
f -10/2/6 -12/2/6 -7/2/6
f -8/1/6 -10/1/6 -7/1/6
f -9/1/6 -8/1/6 -6/1/6
f -8/2/6 -7/2/6 -5/2/6
f -6/1/6 -8/1/6 -5/1/6
f -62/2/6 -9/2/6 -4/2/6
f -9/1/6 -6/1/6 -4/1/6
f -6/2/6 -5/2/6 -3/2/6
f -4/1/6 -6/1/6 -3/1/6
f -62/2/6 -4/2/6 -2/2/6
f -4/2/6 -3/2/6 -2/2/6
f -7/2/6 -12/2/6 -1/2/6
f -2/2/6 -3/2/6 -1/2/6
f -5/2/6 -7/2/6 -1/2/6
f -3/2/6 -5/2/6 -1/2/6
f -12/2/6 -28/2/6 -1/2/6
