# MagicaVoxel @ ephtracy

# material
mtllib tree-003.mtl
usemtl palette

# normals
vn -1 0 0
vn 1 0 0
vn 0 0 1
vn 0 0 -1
vn 0 -1 0
vn 0 1 0

# texcoords
vt 0.0605469 0.5
vt 0.310547 0.5
vt 0.337891 0.5
vt 0.537109 0.5
vt 0.541016 0.5
vt 0.556641 0.5

# verts and faces
v -4.5 6 3.5
v -4.5 6 -3.5
v -4.5 7 -1.5
v -4.5 7 -2.5
v -4.5 8 -1.5
v -4.5 8 -2.5
v -4.5 9 3.5
v -4.5 9 2.5
v -4.5 10 3.5
v -4.5 10 2.5
v -4.5 12 3.5
v -4.5 12 -3.5
v -4.5 13 3.5
v -4.5 13 -3.5
v -4.5 15 1.5
v -4.5 15 0.5
v -4.5 16 1.5
v -4.5 16 0.5
v -4.5 18 0.5
v -4.5 18 -0.5
v -4.5 19 3.5
v -4.5 19 0.5
v -4.5 19 -0.5
v -4.5 19 -3.5
f -22/6/1 -23/6/1 -24/6/1
f -21/6/1 -23/6/1 -22/6/1
f -20/6/1 -22/6/1 -24/6/1
f -20/1/1 -21/1/1 -22/1/1
f -19/6/1 -23/6/1 -21/6/1
f -19/1/1 -21/1/1 -20/1/1
f -18/6/1 -20/6/1 -24/6/1
f -18/6/1 -19/6/1 -20/6/1
f -17/6/1 -19/6/1 -18/6/1
f -16/1/1 -17/1/1 -18/1/1
f -15/6/1 -19/6/1 -17/6/1
f -15/1/1 -17/1/1 -16/1/1
f -14/6/1 -15/6/1 -16/6/1
f -13/6/1 -23/6/1 -19/6/1
f -13/6/1 -15/6/1 -14/6/1
f -13/6/1 -19/6/1 -15/6/1
f -10/6/1 -11/6/1 -12/6/1
f -9/6/1 -11/6/1 -10/6/1
f -8/6/1 -10/6/1 -12/6/1
f -8/1/1 -9/1/1 -10/1/1
f -7/6/1 -11/6/1 -9/6/1
f -7/1/1 -9/1/1 -8/1/1
f -6/6/1 -7/6/1 -8/6/1
f -6/6/1 -11/6/1 -7/6/1
f -5/6/1 -11/6/1 -6/6/1
f -4/6/1 -8/6/1 -12/6/1
f -4/6/1 -6/6/1 -8/6/1
f -3/1/1 -5/1/1 -6/1/1
f -3/6/1 -6/6/1 -4/6/1
f -2/6/1 -11/6/1 -5/6/1
f -2/1/1 -5/1/1 -3/1/1
f -1/6/1 -11/6/1 -2/6/1
v -3.5 6 4.5
v -3.5 6 3.5
v -3.5 6 -3.5
v -3.5 6 -4.5
v -3.5 9 3.5
v -3.5 10 3.5
v -3.5 12 4.5
v -3.5 12 3.5
v -3.5 12 -3.5
v -3.5 12 -4.5
v -3.5 13 4.5
v -3.5 13 3.5
v -3.5 13 -3.5
v -3.5 13 -4.5
v -3.5 19 4.5
v -3.5 19 3.5
v -3.5 19 0.5
v -3.5 19 -0.5
v -3.5 19 -3.5
v -3.5 19 -4.5
v -3.5 20 3.5
v -3.5 20 -3.5
f -18/6/1 -21/6/1 -22/6/1
f -17/6/1 -18/6/1 -22/6/1
f -16/6/1 -17/6/1 -22/6/1
f -15/6/1 -17/6/1 -16/6/1
f -14/6/1 -19/6/1 -20/6/1
f -13/6/1 -19/6/1 -14/6/1
f -11/4/1 -14/4/1 -15/4/1
f -10/4/1 -14/4/1 -11/4/1
f -8/6/1 -11/6/1 -12/6/1
f -7/6/1 -11/6/1 -8/6/1
f -4/6/1 -9/6/1 -10/6/1
f -3/6/1 -9/6/1 -4/6/1
f -2/6/1 -5/6/1 -6/6/1
f -2/6/1 -4/6/1 -5/6/1
f -2/6/1 -6/6/1 -7/6/1
f -1/6/1 -4/6/1 -2/6/1
v -2.5 0 2.5
v -2.5 0 -2.5
v -2.5 1 2.5
v -2.5 1 -2.5
v -2.5 6 2.5
v -2.5 6 -2.5
f -4/2/1 -5/2/1 -6/2/1
f -3/2/1 -5/2/1 -4/2/1
f -2/3/1 -3/3/1 -4/3/1
f -1/3/1 -3/3/1 -2/3/1
v 2.5 0 2.5
v 2.5 0 -2.5
v 2.5 1 2.5
v 2.5 1 -2.5
v 2.5 6 2.5
v 2.5 6 -2.5
f -6/2/2 -5/2/2 -4/2/2
f -4/2/2 -5/2/2 -3/2/2
f -4/3/2 -3/3/2 -2/3/2
f -2/3/2 -3/3/2 -1/3/2
v 3.5 6 4.5
v 3.5 6 3.5
v 3.5 6 -3.5
v 3.5 6 -4.5
v 3.5 12 4.5
v 3.5 12 3.5
v 3.5 12 -3.5
v 3.5 12 -4.5
v 3.5 13 4.5
v 3.5 13 3.5
v 3.5 13 -3.5
v 3.5 13 -4.5
v 3.5 19 4.5
v 3.5 19 3.5
v 3.5 19 1.5
v 3.5 19 0.5
v 3.5 19 -3.5
v 3.5 19 -4.5
v 3.5 20 3.5
v 3.5 20 -3.5
f -20/6/2 -19/6/2 -16/6/2
f -16/6/2 -19/6/2 -15/6/2
f -18/6/2 -17/6/2 -14/6/2
f -14/6/2 -17/6/2 -13/6/2
f -15/4/2 -14/4/2 -11/4/2
f -11/4/2 -14/4/2 -10/4/2
f -12/6/2 -11/6/2 -8/6/2
f -8/6/2 -11/6/2 -7/6/2
f -10/6/2 -9/6/2 -4/6/2
f -4/6/2 -9/6/2 -3/6/2
f -6/6/2 -5/6/2 -2/6/2
f -5/6/2 -4/6/2 -2/6/2
f -7/6/2 -6/6/2 -2/6/2
f -2/6/2 -4/6/2 -1/6/2
v 4.5 6 3.5
v 4.5 6 -3.5
v 4.5 9 1.5
v 4.5 9 0.5
v 4.5 10 1.5
v 4.5 10 0.5
v 4.5 12 3.5
v 4.5 12 -3.5
v 4.5 13 3.5
v 4.5 13 -3.5
v 4.5 14 -1.5
v 4.5 14 -2.5
v 4.5 15 -1.5
v 4.5 15 -2.5
v 4.5 18 1.5
v 4.5 18 0.5
v 4.5 19 3.5
v 4.5 19 1.5
v 4.5 19 0.5
v 4.5 19 -3.5
f -20/6/2 -19/6/2 -18/6/2
f -18/6/2 -19/6/2 -17/6/2
f -20/6/2 -18/6/2 -16/6/2
f -18/1/2 -17/1/2 -16/1/2
f -17/6/2 -19/6/2 -15/6/2
f -16/1/2 -17/1/2 -15/1/2
f -20/6/2 -16/6/2 -14/6/2
f -16/6/2 -15/6/2 -14/6/2
f -15/6/2 -19/6/2 -13/6/2
f -14/6/2 -15/6/2 -13/6/2
f -12/6/2 -11/6/2 -10/6/2
f -10/6/2 -11/6/2 -9/6/2
f -12/6/2 -10/6/2 -8/6/2
f -10/1/2 -9/1/2 -8/1/2
f -9/6/2 -11/6/2 -7/6/2
f -8/1/2 -9/1/2 -7/1/2
f -12/6/2 -8/6/2 -6/6/2
f -8/6/2 -7/6/2 -6/6/2
f -6/6/2 -7/6/2 -5/6/2
f -12/6/2 -6/6/2 -4/6/2
f -6/1/2 -5/1/2 -3/1/2
f -4/6/2 -6/6/2 -3/6/2
f -5/6/2 -7/6/2 -2/6/2
f -3/1/2 -5/1/2 -2/1/2
f -7/6/2 -11/6/2 -1/6/2
f -2/6/2 -7/6/2 -1/6/2
v -3.5 6 4.5
v -3.5 12 4.5
v -3.5 13 4.5
v -3.5 19 4.5
v -2.5 7 4.5
v -2.5 8 4.5
v -1.5 7 4.5
v -1.5 8 4.5
v -1.5 16 4.5
v -1.5 17 4.5
v -0.5 16 4.5
v -0.5 17 4.5
v 0.5 9 4.5
v 0.5 10 4.5
v 1.5 9 4.5
v 1.5 10 4.5
v 3.5 6 4.5
v 3.5 12 4.5
v 3.5 13 4.5
v 3.5 19 4.5
f -16/6/3 -19/6/3 -20/6/3
f -15/6/3 -19/6/3 -16/6/3
f -14/6/3 -16/6/3 -20/6/3
f -14/1/3 -15/1/3 -16/1/3
f -13/6/3 -19/6/3 -15/6/3
f -13/1/3 -15/1/3 -14/1/3
f -12/6/3 -17/6/3 -18/6/3
f -11/6/3 -17/6/3 -12/6/3
f -10/6/3 -12/6/3 -18/6/3
f -10/1/3 -11/1/3 -12/1/3
f -9/6/3 -17/6/3 -11/6/3
f -9/1/3 -11/1/3 -10/1/3
f -8/6/3 -19/6/3 -13/6/3
f -8/6/3 -13/6/3 -14/6/3
f -7/6/3 -19/6/3 -8/6/3
f -6/6/3 -8/6/3 -14/6/3
f -6/1/3 -7/1/3 -8/1/3
f -5/6/3 -19/6/3 -7/6/3
f -5/1/3 -7/1/3 -6/1/3
f -4/6/3 -14/6/3 -20/6/3
f -4/6/3 -6/6/3 -14/6/3
f -4/6/3 -5/6/3 -6/6/3
f -3/6/3 -19/6/3 -5/6/3
f -3/6/3 -5/6/3 -4/6/3
f -2/6/3 -9/6/3 -10/6/3
f -2/6/3 -10/6/3 -18/6/3
f -1/6/3 -17/6/3 -9/6/3
f -1/6/3 -9/6/3 -2/6/3
v -4.5 6 3.5
v -4.5 9 3.5
v -4.5 10 3.5
v -4.5 12 3.5
v -4.5 13 3.5
v -4.5 19 3.5
v -3.5 6 3.5
v -3.5 9 3.5
v -3.5 10 3.5
v -3.5 12 3.5
v -3.5 13 3.5
v -3.5 19 3.5
v -3.5 20 3.5
v 3.5 6 3.5
v 3.5 12 3.5
v 3.5 13 3.5
v 3.5 19 3.5
v 3.5 20 3.5
v 4.5 6 3.5
v 4.5 12 3.5
v 4.5 13 3.5
v 4.5 19 3.5
f -16/6/3 -21/6/3 -22/6/3
f -15/1/3 -20/1/3 -21/1/3
f -15/6/3 -21/6/3 -16/6/3
f -14/6/3 -19/6/3 -20/6/3
f -14/1/3 -20/1/3 -15/1/3
f -13/6/3 -19/6/3 -14/6/3
f -12/6/3 -17/6/3 -18/6/3
f -11/6/3 -17/6/3 -12/6/3
f -8/4/3 -12/4/3 -13/4/3
f -7/4/3 -12/4/3 -8/4/3
f -6/6/3 -10/6/3 -11/6/3
f -5/6/3 -10/6/3 -6/6/3
f -4/6/3 -8/6/3 -9/6/3
f -3/6/3 -8/6/3 -4/6/3
f -2/6/3 -6/6/3 -7/6/3
f -1/6/3 -6/6/3 -2/6/3
v -2.5 0 2.5
v -2.5 1 2.5
v -2.5 6 2.5
v 2.5 0 2.5
v 2.5 1 2.5
v 2.5 6 2.5
f -3/2/3 -5/2/3 -6/2/3
f -2/3/3 -4/3/3 -5/3/3
f -2/2/3 -5/2/3 -3/2/3
f -1/3/3 -4/3/3 -2/3/3
v -2.5 0 -2.5
v -2.5 1 -2.5
v -2.5 6 -2.5
v 2.5 0 -2.5
v 2.5 1 -2.5
v 2.5 6 -2.5
f -6/2/4 -5/2/4 -3/2/4
f -5/3/4 -4/3/4 -2/3/4
f -3/2/4 -5/2/4 -2/2/4
f -2/3/4 -4/3/4 -1/3/4
v -4.5 6 -3.5
v -4.5 12 -3.5
v -4.5 13 -3.5
v -4.5 19 -3.5
v -3.5 6 -3.5
v -3.5 12 -3.5
v -3.5 13 -3.5
v -3.5 19 -3.5
v -3.5 20 -3.5
v 1.5 12 -3.5
v 2.5 12 -3.5
v 3.5 6 -3.5
v 3.5 12 -3.5
v 3.5 13 -3.5
v 3.5 19 -3.5
v 3.5 20 -3.5
v 4.5 6 -3.5
v 4.5 12 -3.5
v 4.5 13 -3.5
v 4.5 19 -3.5
f -20/6/4 -19/6/4 -16/6/4
f -16/6/4 -19/6/4 -15/6/4
f -18/6/4 -17/6/4 -14/6/4
f -14/6/4 -17/6/4 -13/6/4
f -15/4/4 -14/4/4 -11/4/4
f -11/4/4 -14/4/4 -10/4/4
f -10/4/4 -14/4/4 -8/4/4
f -8/4/4 -14/4/4 -7/4/4
f -13/6/4 -12/6/4 -6/6/4
f -6/6/4 -12/6/4 -5/6/4
f -9/6/4 -8/6/4 -4/6/4
f -4/6/4 -8/6/4 -3/6/4
f -7/6/4 -6/6/4 -2/6/4
f -2/6/4 -6/6/4 -1/6/4
v -3.5 6 -4.5
v -3.5 12 -4.5
v -3.5 13 -4.5
v -3.5 19 -4.5
v -2.5 14 -4.5
v -2.5 15 -4.5
v -1.5 8 -4.5
v -1.5 9 -4.5
v -1.5 14 -4.5
v -1.5 15 -4.5
v -0.5 8 -4.5
v -0.5 9 -4.5
v 0.5 16 -4.5
v 0.5 17 -4.5
v 1.5 11 -4.5
v 1.5 12 -4.5
v 1.5 16 -4.5
v 1.5 17 -4.5
v 2.5 11 -4.5
v 2.5 12 -4.5
v 3.5 6 -4.5
v 3.5 12 -4.5
v 3.5 13 -4.5
v 3.5 19 -4.5
f -22/6/4 -21/6/4 -20/6/4
f -20/6/4 -21/6/4 -19/6/4
f -24/6/4 -23/6/4 -18/6/4
f -18/6/4 -23/6/4 -17/6/4
f -22/6/4 -20/6/4 -16/6/4
f -20/1/4 -19/1/4 -16/1/4
f -19/6/4 -21/6/4 -15/6/4
f -16/1/4 -19/1/4 -15/1/4
f -18/1/4 -17/1/4 -14/1/4
f -24/6/4 -18/6/4 -14/6/4
f -17/6/4 -23/6/4 -13/6/4
f -14/1/4 -17/1/4 -13/1/4
f -15/6/4 -21/6/4 -12/6/4
f -16/6/4 -15/6/4 -12/6/4
f -12/6/4 -21/6/4 -11/6/4
f -13/6/4 -23/6/4 -10/6/4
f -14/6/4 -13/6/4 -10/6/4
f -10/6/4 -23/6/4 -9/6/4
f -12/1/4 -11/1/4 -8/1/4
f -16/6/4 -12/6/4 -8/6/4
f -11/6/4 -21/6/4 -7/6/4
f -8/1/4 -11/1/4 -7/1/4
f -10/1/4 -9/1/4 -6/1/4
f -14/6/4 -10/6/4 -6/6/4
f -6/1/4 -9/1/4 -5/1/4
f -24/6/4 -14/6/4 -4/6/4
f -14/6/4 -6/6/4 -4/6/4
f -6/6/4 -5/6/4 -4/6/4
f -4/6/4 -5/6/4 -3/6/4
f -22/6/4 -16/6/4 -2/6/4
f -16/6/4 -8/6/4 -2/6/4
f -8/6/4 -7/6/4 -2/6/4
f -7/6/4 -21/6/4 -1/6/4
f -2/6/4 -7/6/4 -1/6/4
v -2.5 0 2.5
v 2.5 0 2.5
v -2.5 0 -2.5
v 2.5 0 -2.5
f -2/2/5 -3/2/5 -4/2/5
f -1/2/5 -3/2/5 -2/2/5
v -3.5 6 4.5
v 3.5 6 4.5
v -4.5 6 3.5
v -3.5 6 3.5
v 3.5 6 3.5
v 4.5 6 3.5
v -2.5 6 2.5
v 2.5 6 2.5
v -2.5 6 -2.5
v 2.5 6 -2.5
v -4.5 6 -3.5
v -3.5 6 -3.5
v 3.5 6 -3.5
v 4.5 6 -3.5
v -3.5 6 -4.5
v 3.5 6 -4.5
f -13/6/5 -15/6/5 -16/6/5
f -12/6/5 -15/6/5 -13/6/5
f -10/5/5 -12/5/5 -13/5/5
f -9/5/5 -12/5/5 -10/5/5
f -8/5/5 -10/5/5 -13/5/5
f -7/5/5 -12/5/5 -9/5/5
f -6/6/5 -13/6/5 -14/6/5
f -5/5/5 -7/5/5 -8/5/5
f -5/6/5 -13/6/5 -6/6/5
f -5/5/5 -8/5/5 -13/5/5
f -4/6/5 -11/6/5 -12/6/5
f -4/5/5 -7/5/5 -5/5/5
f -4/5/5 -12/5/5 -7/5/5
f -3/6/5 -11/6/5 -4/6/5
f -2/6/5 -4/6/5 -5/6/5
f -1/6/5 -4/6/5 -2/6/5
v -3.5 13 4.5
v 3.5 13 4.5
v -4.5 13 3.5
v -3.5 13 3.5
v 3.5 13 3.5
v 4.5 13 3.5
v -4.5 13 -3.5
v -3.5 13 -3.5
v 3.5 13 -3.5
v 4.5 13 -3.5
v -3.5 13 -4.5
v 3.5 13 -4.5
f -9/6/5 -11/6/5 -12/6/5
f -8/6/5 -11/6/5 -9/6/5
f -6/6/5 -9/6/5 -10/6/5
f -5/6/5 -9/6/5 -6/6/5
f -4/6/5 -7/6/5 -8/6/5
f -3/6/5 -7/6/5 -4/6/5
f -2/6/5 -4/6/5 -5/6/5
f -1/6/5 -4/6/5 -2/6/5
v -3.5 12 4.5
v 3.5 12 4.5
v -4.5 12 3.5
v -3.5 12 3.5
v 3.5 12 3.5
v 4.5 12 3.5
v -4.5 12 -3.5
v -3.5 12 -3.5
v 1.5 12 -3.5
v 2.5 12 -3.5
v 3.5 12 -3.5
v 4.5 12 -3.5
v -3.5 12 -4.5
v 1.5 12 -4.5
v 2.5 12 -4.5
v 3.5 12 -4.5
f -16/6/6 -15/6/6 -13/6/6
f -13/6/6 -15/6/6 -12/6/6
f -14/6/6 -13/6/6 -10/6/6
f -10/6/6 -13/6/6 -9/6/6
f -12/6/6 -11/6/6 -6/6/6
f -6/6/6 -11/6/6 -5/6/6
f -9/6/6 -8/6/6 -4/6/6
f -8/1/6 -7/1/6 -3/1/6
f -4/6/6 -8/6/6 -3/6/6
f -7/6/6 -6/6/6 -2/6/6
f -3/1/6 -7/1/6 -2/1/6
f -2/6/6 -6/6/6 -1/6/6
v -3.5 19 4.5
v 3.5 19 4.5
v -4.5 19 3.5
v -3.5 19 3.5
v 3.5 19 3.5
v 4.5 19 3.5
v 3.5 19 1.5
v 4.5 19 1.5
v -4.5 19 0.5
v -3.5 19 0.5
v 3.5 19 0.5
v 4.5 19 0.5
v -4.5 19 -0.5
v -3.5 19 -0.5
v -4.5 19 -3.5
v -3.5 19 -3.5
v 3.5 19 -3.5
v 4.5 19 -3.5
v -3.5 19 -4.5
v 3.5 19 -4.5
f -20/6/6 -19/6/6 -17/6/6
f -17/6/6 -19/6/6 -16/6/6
f -16/6/6 -15/6/6 -14/6/6
f -14/6/6 -15/6/6 -13/6/6
f -18/6/6 -17/6/6 -12/6/6
f -12/6/6 -17/6/6 -11/6/6
f -14/1/6 -13/1/6 -10/1/6
f -10/1/6 -13/1/6 -9/1/6
f -12/1/6 -11/1/6 -8/1/6
f -8/1/6 -11/1/6 -7/1/6
f -8/6/6 -7/6/6 -6/6/6
f -6/6/6 -7/6/6 -5/6/6
f -10/6/6 -9/6/6 -4/6/6
f -4/6/6 -9/6/6 -3/6/6
f -5/6/6 -4/6/6 -2/6/6
f -2/6/6 -4/6/6 -1/6/6
v -3.5 20 3.5
v 3.5 20 3.5
v -1.5 20 0.5
v -0.5 20 0.5
v -1.5 20 -0.5
v -0.5 20 -0.5
v -3.5 20 -3.5
v 3.5 20 -3.5
f -8/6/6 -7/6/6 -6/6/6
f -6/6/6 -7/6/6 -5/6/6
f -8/6/6 -6/6/6 -4/6/6
f -6/1/6 -5/1/6 -4/1/6
f -5/6/6 -7/6/6 -3/6/6
f -4/1/6 -5/1/6 -3/1/6
f -8/6/6 -4/6/6 -2/6/6
f -4/6/6 -3/6/6 -2/6/6
f -3/6/6 -7/6/6 -1/6/6
f -2/6/6 -3/6/6 -1/6/6
