# MagicaVoxel @ ephtracy

# material
mtllib tree-001.mtl
usemtl palette

# normals
vn -1 0 0
vn 1 0 0
vn 0 0 1
vn 0 0 -1
vn 0 -1 0
vn 0 1 0

# texcoords
vt 0.310547 0.5
vt 0.537109 0.5
vt 0.541016 0.5

# verts and faces
v -3.5 6 3.5
v -3.5 6 -3.5
v -3.5 12 3.5
v -3.5 12 -3.5
v -3.5 13 3.5
v -3.5 13 -3.5
v -3.5 19 3.5
v -3.5 19 -3.5
f -6/3/1 -7/3/1 -8/3/1
f -5/3/1 -7/3/1 -6/3/1
f -4/2/1 -5/2/1 -6/2/1
f -3/2/1 -5/2/1 -4/2/1
f -2/3/1 -3/3/1 -4/3/1
f -1/3/1 -3/3/1 -2/3/1
v -2.5 0 2.5
v -2.5 0 -2.5
v -2.5 6 2.5
v -2.5 6 -2.5
f -2/1/1 -3/1/1 -4/1/1
f -1/1/1 -3/1/1 -2/1/1
v 2.5 0 2.5
v 2.5 0 -2.5
v 2.5 6 2.5
v 2.5 6 -2.5
f -4/1/2 -3/1/2 -2/1/2
f -2/1/2 -3/1/2 -1/1/2
v 3.5 6 3.5
v 3.5 6 -3.5
v 3.5 12 3.5
v 3.5 12 -3.5
v 3.5 13 3.5
v 3.5 13 -3.5
v 3.5 19 3.5
v 3.5 19 -3.5
f -8/3/2 -7/3/2 -6/3/2
f -6/3/2 -7/3/2 -5/3/2
f -6/2/2 -5/2/2 -4/2/2
f -4/2/2 -5/2/2 -3/2/2
f -4/3/2 -3/3/2 -2/3/2
f -2/3/2 -3/3/2 -1/3/2
v -3.5 6 3.5
v -3.5 12 3.5
v -3.5 13 3.5
v -3.5 19 3.5
v 3.5 6 3.5
v 3.5 12 3.5
v 3.5 13 3.5
v 3.5 19 3.5
f -4/3/3 -7/3/3 -8/3/3
f -3/2/3 -6/2/3 -7/2/3
f -3/3/3 -7/3/3 -4/3/3
f -2/3/3 -5/3/3 -6/3/3
f -2/2/3 -6/2/3 -3/2/3
f -1/3/3 -5/3/3 -2/3/3
v -2.5 0 2.5
v -2.5 6 2.5
v 2.5 0 2.5
v 2.5 6 2.5
f -2/1/3 -3/1/3 -4/1/3
f -1/1/3 -3/1/3 -2/1/3
v -2.5 0 -2.5
v -2.5 6 -2.5
v 2.5 0 -2.5
v 2.5 6 -2.5
f -4/1/4 -3/1/4 -2/1/4
f -2/1/4 -3/1/4 -1/1/4
v -3.5 6 -3.5
v -3.5 12 -3.5
v -3.5 13 -3.5
v -3.5 19 -3.5
v 3.5 6 -3.5
v 3.5 12 -3.5
v 3.5 13 -3.5
v 3.5 19 -3.5
f -8/3/4 -7/3/4 -4/3/4
f -7/2/4 -6/2/4 -3/2/4
f -4/3/4 -7/3/4 -3/3/4
f -6/3/4 -5/3/4 -2/3/4
f -3/2/4 -6/2/4 -2/2/4
f -2/3/4 -5/3/4 -1/3/4
v -2.5 0 2.5
v 2.5 0 2.5
v -2.5 0 -2.5
v 2.5 0 -2.5
f -2/1/5 -3/1/5 -4/1/5
f -1/1/5 -3/1/5 -2/1/5
v -3.5 6 3.5
v 3.5 6 3.5
v -2.5 6 2.5
v 2.5 6 2.5
v -2.5 6 -2.5
v 2.5 6 -2.5
v -3.5 6 -3.5
v 3.5 6 -3.5
f -6/3/5 -7/3/5 -8/3/5
f -5/3/5 -7/3/5 -6/3/5
f -4/3/5 -6/3/5 -8/3/5
f -3/3/5 -7/3/5 -5/3/5
f -2/3/5 -4/3/5 -8/3/5
f -2/3/5 -3/3/5 -4/3/5
f -1/3/5 -7/3/5 -3/3/5
f -1/3/5 -3/3/5 -2/3/5
v -3.5 19 3.5
v 3.5 19 3.5
v -3.5 19 -3.5
v 3.5 19 -3.5
f -4/3/6 -3/3/6 -2/3/6
f -2/3/6 -3/3/6 -1/3/6
